<svg width="106" height="107" viewBox="0 0 106 107" fill="none" xmlns="http://www.w3.org/2000/svg">
<g filter="url(#filter0_dd_59_27688)">
<rect x="3" y="2.56836" width="100" height="100" rx="16" fill="white"/>
<path d="M82.2076 45.1899C83.6746 42.2876 83.0672 38.8424 80.6959 36.617L77.362 33.4878C76.6171 32.7888 76.181 32.0333 75.9479 31.0385L74.9049 26.5866C74.1632 23.4203 71.4834 21.1716 68.2363 20.991L63.6711 20.7371C62.6509 20.6804 61.8312 20.382 61.0131 19.7698L57.3526 17.0298C54.7491 15.0812 51.2509 15.0812 48.6474 17.0298L44.9869 19.7697C44.1688 20.382 43.3491 20.6804 42.3289 20.7371L37.7637 20.991C34.5166 21.1716 31.8367 23.4203 31.0951 26.5866L30.0522 31.0385C29.8192 32.0333 29.383 32.7888 28.6381 33.4878L25.3041 36.617C22.9328 38.8425 22.3254 42.2876 23.7924 45.1899L25.8552 49.2706C26.3162 50.1825 26.4676 51.0416 26.3464 52.0561L25.8039 56.5961C25.4179 59.8251 27.167 62.8547 30.1564 64.1351L33.5944 65.6075L26.5644 80.707C26.4305 80.9933 26.3779 81.3108 26.4123 81.625C26.4467 81.9391 26.5668 82.2377 26.7594 82.4882C26.9512 82.7395 27.2084 82.9331 27.5028 83.048C27.7972 83.1628 28.1176 83.1945 28.4288 83.1395L35.8138 81.8492L39.5805 88.3309C39.7387 88.6045 39.9691 88.8293 40.2465 88.9807C40.524 89.1321 40.8377 89.2042 41.1534 89.1892C41.4692 89.1755 41.7751 89.0752 42.0377 88.8993C42.3003 88.7234 42.5094 88.4787 42.6423 88.1919L49.2818 73.9308L51.5858 73.2346C52.5638 72.9392 53.4362 72.9392 54.4142 73.2346L56.7182 73.931L63.3577 88.1921C63.4962 88.4912 63.7176 88.7443 63.9956 88.9214C64.2736 89.0984 64.5966 89.1921 64.9262 89.1911C65.5412 89.1911 66.1079 88.8668 66.4194 88.3312L70.186 81.8493L77.571 83.1396C78.2079 83.2509 78.8475 83.0013 79.2406 82.4884C79.6337 81.9755 79.7083 81.2929 79.4356 80.7072L72.4059 65.6076L75.844 64.1354C78.8334 62.855 80.5825 59.8254 80.1966 56.5963L79.6539 52.0562C79.5327 51.0417 79.6841 50.1827 80.1451 49.2708L82.2076 45.1899ZM41.0118 86.0667L37.4518 79.9402C37.3298 79.7302 37.1464 79.5626 36.9262 79.4601C36.7061 79.3577 36.4598 79.3252 36.2206 79.367L29.2405 80.5865L35.6782 66.7588C35.9929 67.0388 36.2718 67.3643 36.5261 67.7533L39.0287 71.5799C40.6301 74.0286 43.4516 75.2419 46.2687 74.7755L41.0118 86.0667ZM69.7794 79.367C69.5402 79.3251 69.2939 79.3576 69.0738 79.4601C68.8536 79.5626 68.6702 79.7302 68.5482 79.9402L64.9882 86.0667L59.7312 74.7752C60.1295 74.8411 60.5279 74.8746 60.9229 74.8746C63.3215 74.8746 65.5962 73.6822 66.9711 71.5799L69.4738 67.7531C69.7281 67.3642 70.007 67.0387 70.3217 66.7587L76.7593 80.5863L69.7794 79.367ZM78.0251 48.1992C77.3587 49.5175 77.12 50.8712 77.2952 52.338L77.8379 56.878C78.1017 59.0851 76.9519 61.0766 74.9087 61.9517L70.7054 63.7518C69.3476 64.3332 68.2945 65.2169 67.4861 66.4532L64.9835 70.28C63.7668 72.1401 61.6059 72.9267 59.4782 72.2838L55.1013 70.961C54.3943 70.7474 53.6972 70.6405 53.0001 70.6405C52.303 70.6405 51.6057 70.7474 50.8988 70.961L46.5219 72.2838C44.3944 72.9266 42.2333 72.1403 41.0167 70.28L38.5141 66.4533C37.7058 65.2171 36.6527 64.3335 35.2946 63.7518L31.0915 61.9517C29.0481 61.0766 27.8983 59.085 28.1622 56.8779L28.7048 52.3378C28.8801 50.8712 28.6414 49.5174 27.975 48.199L25.9122 44.1183C24.9095 42.1344 25.3088 39.8698 26.9295 38.3486L30.2636 35.2194C31.3406 34.2085 32.0279 33.018 32.3647 31.5798L33.4075 27.128C33.9145 24.9638 35.6762 23.4856 37.8956 23.3621L42.4609 23.1082C43.9357 23.0261 45.2275 22.556 46.4101 21.6708L50.0707 18.9308C51.8501 17.5991 54.1498 17.599 55.9293 18.9308L59.5899 21.671C60.7725 22.5562 62.0643 23.0263 63.5391 23.1084L68.1044 23.3622C70.3238 23.4857 72.0854 24.9638 72.5923 27.1281L73.6353 31.58C73.9723 33.0183 74.6596 34.2088 75.7365 35.2196L79.0705 38.3488C80.6912 39.8701 81.0905 42.1346 80.0878 44.1184L78.0251 48.1992ZM52.9999 25.3088C42.0209 25.3088 33.0887 34.2409 33.0887 45.2199C33.0887 56.199 42.0208 65.1311 52.9999 65.1311C63.9791 65.1311 72.911 56.199 72.911 45.2199C72.9112 34.2409 63.9791 25.3088 52.9999 25.3088ZM52.9999 62.756C43.3305 62.756 35.4638 54.8893 35.4638 45.2199C35.4638 35.5505 43.3305 27.6839 52.9999 27.6839C62.6693 27.6839 70.5359 35.5506 70.5359 45.2199C70.5361 54.8893 62.6693 62.756 52.9999 62.756ZM57.3314 45.4761C58.7994 44.2398 59.7344 42.3899 59.7344 40.3249C59.7344 36.6115 56.7134 33.5905 53.0001 33.5905C49.2867 33.5905 46.2657 36.6115 46.2657 40.3249C46.2657 42.3898 47.2008 44.2397 48.6687 45.4761C44.5017 47.0573 41.4121 50.8612 40.912 55.5353C40.8943 55.701 40.9116 55.8685 40.9629 56.027C41.0142 56.1856 41.0982 56.3315 41.2096 56.4554C41.3209 56.5794 41.4571 56.6785 41.6093 56.7463C41.7614 56.8141 41.9262 56.8492 42.0928 56.8492H63.9072C64.0739 56.8493 64.2386 56.8143 64.3908 56.7464C64.543 56.6786 64.6792 56.5795 64.7906 56.4556C64.902 56.3317 64.986 56.1857 65.0372 56.0271C65.0885 55.8686 65.1058 55.701 65.088 55.5353C64.5879 50.8614 61.4983 47.0575 57.3314 45.4761ZM48.6408 40.3249C48.6408 37.9213 50.5963 35.9657 53.0001 35.9657C55.4039 35.9657 57.3593 37.9211 57.3593 40.3249C57.3593 42.7276 55.4053 44.6824 53.003 44.684H52.9971C50.5948 44.6825 48.6408 42.7276 48.6408 40.3249ZM43.5045 54.4741C44.5665 50.1668 48.4376 47.0606 52.997 47.0593L53.0001 47.0594L53.0032 47.0593C57.5624 47.0607 61.4335 50.167 62.4955 54.4741H43.5045Z" fill="url(#paint0_linear_59_27688)"/>
</g>
<defs>
<filter id="filter0_dd_59_27688" x="0" y="0.568359" width="106" height="106" filterUnits="userSpaceOnUse" color-interpolation-filters="sRGB">
<feFlood flood-opacity="0" result="BackgroundImageFix"/>
<feColorMatrix in="SourceAlpha" type="matrix" values="0 0 0 0 0 0 0 0 0 0 0 0 0 0 0 0 0 0 127 0" result="hardAlpha"/>
<feOffset dy="1"/>
<feGaussianBlur stdDeviation="1"/>
<feColorMatrix type="matrix" values="0 0 0 0 0.0627451 0 0 0 0 0.0941176 0 0 0 0 0.156863 0 0 0 0.06 0"/>
<feBlend mode="normal" in2="BackgroundImageFix" result="effect1_dropShadow_59_27688"/>
<feColorMatrix in="SourceAlpha" type="matrix" values="0 0 0 0 0 0 0 0 0 0 0 0 0 0 0 0 0 0 127 0" result="hardAlpha"/>
<feOffset dy="1"/>
<feGaussianBlur stdDeviation="1.5"/>
<feColorMatrix type="matrix" values="0 0 0 0 0.0627451 0 0 0 0 0.0941176 0 0 0 0 0.156863 0 0 0 0.1 0"/>
<feBlend mode="normal" in2="effect1_dropShadow_59_27688" result="effect2_dropShadow_59_27688"/>
<feBlend mode="normal" in="SourceGraphic" in2="effect2_dropShadow_59_27688" result="shape"/>
</filter>
<linearGradient id="paint0_linear_59_27688" x1="23" y1="52.6408" x2="89.5074" y2="52.6408" gradientUnits="userSpaceOnUse">
<stop stop-color="#8548DA"/>
<stop offset="0.375222" stop-color="#4C85F4"/>
<stop offset="0.651028" stop-color="#556BBB"/>
<stop offset="1" stop-color="#CC0F97"/>
</linearGradient>
</defs>
</svg>
