<svg width="106" height="107" viewBox="0 0 106 107" fill="none" xmlns="http://www.w3.org/2000/svg">
<g filter="url(#filter0_dd_59_27685)">
<rect x="3" y="2.56836" width="100" height="100" rx="16" fill="white"/>
<path d="M75.377 59.8171C76.1334 57.4823 76.5176 55.0472 76.5176 52.5658C76.5176 50.0937 76.1363 47.6673 75.3844 45.3399C77.0378 44.719 78.5412 43.7248 79.7893 42.4029C81.9464 40.1195 83.0848 37.1321 82.9951 33.9923C82.8092 27.51 77.3849 22.3884 70.9017 22.5734C67.7613 22.6632 64.8446 23.9704 62.6874 26.2544C61.5981 27.4078 60.7693 28.7407 60.2267 30.1822C57.8987 29.4308 55.4725 29.0494 52.9994 29.0494C50.5248 29.0494 48.0967 29.4317 45.7674 30.1841C44.0874 25.7384 39.7878 22.5684 34.761 22.5684C28.2759 22.5684 23 27.8442 23 34.3289C23 39.3552 26.1705 43.6544 30.6162 45.3339C29.8634 47.6637 29.4815 50.0919 29.4815 52.5658C29.4815 55.0472 29.8656 57.4823 30.622 59.8171C26.1732 61.4952 23 65.7962 23 70.8248C23 72.595 23.3837 74.297 24.1406 75.8831C24.1903 75.9874 24.26 76.0808 24.3458 76.158C24.4317 76.2353 24.5318 76.2949 24.6407 76.3334C24.7496 76.372 24.8649 76.3887 24.9802 76.3826C25.0956 76.3766 25.2086 76.3478 25.3128 76.2981C25.5231 76.1976 25.6849 76.0176 25.7627 75.7979C25.8405 75.5781 25.828 75.3364 25.7277 75.1259C25.0843 73.7779 24.7583 72.3309 24.7583 70.8248C24.7583 65.31 29.2456 60.8231 34.761 60.8231C40.2768 60.8231 44.7641 65.31 44.7641 70.8248C44.7641 76.3401 40.2768 80.827 34.761 80.827C32.2454 80.827 29.8409 79.8898 27.991 78.1877C27.6335 77.859 27.0771 77.8823 26.7487 78.2395C26.6705 78.3245 26.6098 78.424 26.5701 78.5324C26.5304 78.6408 26.5125 78.756 26.5173 78.8713C26.5221 78.9867 26.5496 79.1 26.5982 79.2047C26.6468 79.3094 26.7155 79.4036 26.8005 79.4817C28.9759 81.4832 31.803 82.5854 34.761 82.5854C39.795 82.5854 44.1002 79.4057 45.7747 74.95C48.1013 75.701 50.5272 76.0823 52.9994 76.0823C55.472 76.0823 57.8984 75.701 60.2248 74.9504C61.8996 79.4063 66.2046 82.5854 71.2387 82.5854C77.7238 82.5854 82.9996 77.3095 82.9996 70.8248C82.9996 65.7962 79.8265 61.4948 75.377 59.8171ZM63.9659 27.4614C65.8002 25.519 68.2815 24.4073 70.9524 24.3308C71.0492 24.328 71.146 24.3267 71.2428 24.3267C76.6267 24.3267 81.0824 28.6268 81.2371 34.0423C81.3137 36.7127 80.3457 39.2531 78.5114 41.1959C76.677 43.1382 74.1957 44.2501 71.5248 44.3265C71.428 44.3293 71.3312 44.3306 71.2344 44.3306C65.8505 44.3306 61.3948 40.0306 61.2401 34.6151C61.1631 31.9446 62.1315 29.4039 63.9659 27.4614ZM59.7317 73.2617C57.5655 73.966 55.3049 74.324 52.9994 74.324C50.6948 74.324 48.4342 73.966 46.2678 73.2617C46.4372 72.4605 46.5225 71.6437 46.5224 70.8247C46.5224 64.3401 41.2461 59.0648 34.761 59.0648C33.9207 59.0648 33.1011 59.154 32.3104 59.3221C31.6001 57.148 31.2398 54.8792 31.2398 52.5658C31.2398 50.2599 31.5984 47.9983 32.3039 45.8298C33.1116 46.0023 33.9351 46.0892 34.761 46.0889C36.7758 46.0889 38.7635 45.5706 40.5103 44.5903C40.9335 44.3527 41.084 43.817 40.8464 43.3934C40.6088 42.9699 40.073 42.8196 39.6496 43.0572C38.165 43.8902 36.4744 44.3306 34.761 44.3306C29.2452 44.3306 24.7583 39.8438 24.7583 34.3284C24.7583 28.8135 29.2456 24.3267 34.761 24.3267C40.2768 24.3267 44.7641 28.8135 44.7641 34.3289C44.7641 36.6363 43.9596 38.8872 42.499 40.6679C42.1907 41.043 42.2458 41.597 42.6212 41.9052C42.8015 42.053 43.0331 42.1231 43.2651 42.1002C43.4971 42.0773 43.7105 41.9632 43.8584 41.7829C45.576 39.689 46.5224 37.0414 46.5224 34.3284C46.5224 33.4864 46.4322 32.6645 46.2633 31.8718C48.4314 31.1661 50.6934 30.8077 52.9994 30.8077C55.3049 30.8077 57.5659 31.1658 59.7331 31.8704C59.5393 32.7889 59.4551 33.7271 59.4822 34.6654C59.6649 41.0333 64.9032 46.0894 71.234 46.0889C72.0612 46.089 72.8862 46.0028 73.6956 45.8316C74.4008 47.9993 74.7594 50.2608 74.7594 52.566C74.7594 54.8792 74.3986 57.1481 73.6888 59.3221C72.8834 59.1507 72.0621 59.0644 71.2387 59.0648C64.7534 59.0648 59.4777 64.3402 59.4777 70.8248C59.4777 71.6605 59.5656 72.4755 59.7317 73.2617ZM71.2387 80.827C65.7228 80.827 61.236 76.3402 61.236 70.8253C61.236 65.31 65.7228 60.8231 71.2387 60.8231C76.7544 60.8231 81.2413 65.31 81.2413 70.8253C81.2413 76.3402 76.7544 80.827 71.2387 80.827Z" fill="url(#paint0_linear_59_27685)"/>
<path d="M40.7479 29.1388C40.5999 29.0381 40.4248 28.985 40.2458 28.9866C40.0669 28.9881 39.8926 29.0443 39.7465 29.1475C39.4479 29.358 39.127 29.5347 38.7895 29.6745C37.5816 28.7294 35.8311 28.7404 34.6319 29.7831C34.0133 30.3201 33.6193 31.0702 33.5283 31.8844C32.8844 31.7886 32.2668 31.5626 31.7132 31.2203C31.1595 30.878 30.6814 30.4265 30.308 29.8934C30.2184 29.7662 30.0968 29.6651 29.9555 29.6002C29.8142 29.5353 29.6583 29.509 29.5035 29.5239C29.3486 29.5389 29.2005 29.5947 29.0742 29.6857C28.948 29.7767 28.8481 29.8996 28.7849 30.0418C28.7598 30.0985 28.1682 31.4502 28.2437 33.1046C28.3015 34.3706 28.7543 36.0026 30.406 37.2627C29.8094 37.4558 29.1835 37.5423 28.5569 37.5182C28.3594 37.5106 28.1651 37.5697 28.0053 37.686C27.8455 37.8024 27.7296 37.9692 27.6762 38.1595C27.6229 38.3498 27.6351 38.5525 27.7111 38.735C27.7871 38.9174 27.9223 39.069 28.095 39.1652C29.4742 39.9313 30.9518 40.3151 32.3954 40.3151C33.7824 40.3151 35.1378 39.9606 36.3439 39.2513C37.8563 38.3616 38.9552 36.9995 39.5519 35.3359C39.5706 35.2937 39.5862 35.2499 39.5987 35.2045C39.9054 34.3011 40.0661 33.3115 40.0661 32.262C40.0661 32.2163 40.0647 32.17 40.063 32.1242C40.5659 31.5312 40.9237 30.8292 41.1079 30.0738C41.15 29.8998 41.1382 29.7172 41.0739 29.5501C41.0096 29.3831 40.8959 29.2396 40.748 29.1388H40.7479ZM38.2807 31.9878C38.2982 32.0794 38.3073 32.1741 38.3073 32.2649C38.3073 33.1266 38.1791 33.9247 37.9351 34.6458C37.9217 34.6793 37.9106 34.7135 37.9016 34.7484C37.4452 36.026 36.6141 37.0522 35.4524 37.7358C34.3892 38.3617 33.169 38.6282 31.9253 38.5379C32.2103 38.3969 32.4853 38.2366 32.7485 38.0581C32.8782 37.97 32.9819 37.8488 33.0491 37.7071C33.1162 37.5655 33.1443 37.4084 33.1304 37.2522C33.1165 37.0961 33.061 36.9464 32.9698 36.8189C32.8786 36.6914 32.7549 36.5905 32.6116 36.5269C30.97 35.7974 30.0923 34.6372 30.003 33.079C29.9867 32.7766 29.9974 32.4733 30.0351 32.1728C31.2443 33.1833 32.7934 33.7347 34.4102 33.693C34.6394 33.6871 34.8572 33.592 35.0173 33.4278C35.1773 33.2637 35.2669 33.0435 35.267 32.8143V32.269C35.2638 32.0497 35.3085 31.8323 35.3981 31.6321C35.4877 31.4319 35.62 31.2537 35.7857 31.11C36.414 30.5638 37.3691 30.6301 37.9154 31.2584C38.0227 31.3817 38.1622 31.4725 38.3184 31.5207C38.264 31.6702 38.2511 31.8315 38.2809 31.9878H38.2807ZM68.3461 35.0218H69.5925V40.2642C69.5925 40.4974 69.6851 40.721 69.85 40.8859C70.0149 41.0508 70.2385 41.1434 70.4716 41.1434C70.7048 41.1434 70.9284 41.0508 71.0933 40.8859C71.2582 40.721 71.3508 40.4974 71.3508 40.2642V35.0218H72.7085C73.1937 35.0218 73.5876 34.6279 73.5876 34.1426C73.5876 33.6573 73.1937 33.2635 72.7085 33.2635H71.3508V30.8037C71.3508 29.9594 72.0381 29.272 72.8829 29.272H74.0211C74.5066 29.272 74.9002 28.8782 74.9002 28.3928C74.9002 28.1597 74.8076 27.936 74.6427 27.7712C74.4779 27.6063 74.2543 27.5137 74.0211 27.5137H72.8829C71.0687 27.5137 69.5925 28.9895 69.5925 30.8037V33.2635H68.3461C67.8608 33.2635 67.4669 33.6573 67.4669 34.1426C67.4669 34.6279 67.8608 35.0218 68.3461 35.0218ZM32.7668 75.3712C32.9762 75.3712 33.1853 75.3173 33.3717 75.2097L39.3559 71.7531C39.5396 71.6467 39.6922 71.4939 39.7983 71.3101C39.9044 71.1262 39.9605 70.9177 39.9607 70.7054C39.9607 70.275 39.7291 69.8735 39.3559 69.6583L33.3718 66.2015C33.1879 66.0956 32.9793 66.0398 32.7671 66.0398C32.5548 66.0398 32.3463 66.0956 32.1624 66.2015C31.9786 66.3079 31.826 66.4607 31.7198 66.6445C31.6135 66.8284 31.5574 67.0369 31.5571 67.2493V74.1621C31.5571 74.5929 31.7892 74.9945 32.1624 75.2097C32.3461 75.3159 32.5546 75.3717 32.7668 75.3714V75.3712ZM33.3154 68.1998L37.6544 70.706L33.3154 73.2119V68.1998ZM75.0593 64.5981H67.4189C66.0919 64.5981 65.0121 65.6777 65.0121 67.0052V74.6442C65.0121 75.9717 66.0918 77.0514 67.4189 77.0514H75.0593C76.3863 77.0514 77.4659 75.9717 77.4659 74.6442V67.0052C77.4659 65.6778 76.3863 64.5981 75.0593 64.5981ZM75.7075 74.6442C75.7075 74.8162 75.6392 74.9811 75.5177 75.1028C75.3961 75.2244 75.2313 75.2928 75.0593 75.2931H67.4189C67.2469 75.2929 67.082 75.2245 66.9604 75.1028C66.8388 74.9812 66.7705 74.8162 66.7704 74.6442V67.0052C66.7706 66.8332 66.8389 66.6684 66.9605 66.5467C67.0821 66.4251 67.2469 66.3566 67.4189 66.3564H75.0593C75.2312 66.3567 75.396 66.4252 75.5175 66.5468C75.6391 66.6684 75.7074 66.8333 75.7075 67.0052V74.6442Z" fill="url(#paint1_linear_59_27685)"/>
<path d="M71.2384 68.168C69.7731 68.168 68.5808 69.3603 68.5808 70.8256C68.5808 72.2908 69.7731 73.4827 71.2384 73.4827C72.7037 73.4827 73.8959 72.2908 73.8959 70.8256C73.8959 69.3603 72.7037 68.168 71.2384 68.168ZM71.2384 71.7244C70.7426 71.7244 70.3391 71.321 70.3391 70.8256C70.3391 70.3297 70.7424 69.9263 71.2384 69.9263C71.7344 69.9263 72.1376 70.3296 72.1376 70.8256C72.1376 71.321 71.7342 71.7244 71.2384 71.7244ZM59.3619 43.4449C59.1288 43.4449 58.9052 43.5376 58.7403 43.7024C58.5754 43.8673 58.4828 44.0909 58.4828 44.3241V44.7183C57.2428 45.4494 55.9446 46.0772 54.6016 46.5952C53.5252 47.0092 52.4227 47.3517 51.3011 47.6205C51.1237 47.4829 50.9057 47.4082 50.6812 47.4079H46.6558C45.6833 47.4079 44.8926 48.1992 44.8926 49.1713V53.7883C44.8926 54.7608 45.6833 55.5516 46.6559 55.5516H47.4604L47.7653 61.4136C47.7713 61.5289 47.8 61.6418 47.8497 61.746C47.8993 61.8502 47.9691 61.9436 48.0548 62.0209C48.1406 62.0981 48.2408 62.1577 48.3496 62.1963C48.4584 62.2348 48.5737 62.2515 48.689 62.2455C48.9218 62.2334 49.1403 62.1293 49.2964 61.9561C49.4524 61.7829 49.5333 61.5549 49.5213 61.322L49.221 55.5516H50.6812C50.9143 55.5516 51.129 55.4719 51.3008 55.3396C52.0145 55.5116 52.7207 55.7134 53.4176 55.9444C53.5272 55.9808 53.6428 55.9952 53.758 55.9868C53.8731 55.9785 53.9855 55.9475 54.0887 55.8957C54.1919 55.844 54.2839 55.7724 54.3594 55.685C54.4349 55.5977 54.4925 55.4963 54.5289 55.3867C54.5652 55.2772 54.5796 55.1615 54.5713 55.0463C54.5629 54.9312 54.532 54.8188 54.4802 54.7156C54.4284 54.6124 54.3568 54.5204 54.2695 54.4449C54.1821 54.3694 54.0808 54.3118 53.9712 54.2754C53.2228 54.0273 52.4643 53.8106 51.6977 53.6261V49.3343C52.8992 49.0465 54.0804 48.6795 55.2336 48.2359C56.3473 47.8064 57.4325 47.3062 58.4824 46.7384V56.2232C58.0971 56.015 57.7069 55.8159 57.3121 55.6262C57.2081 55.5761 57.0952 55.547 56.9799 55.5405C56.8647 55.5341 56.7493 55.5504 56.6403 55.5886C56.5313 55.6268 56.431 55.6861 56.345 55.7631C56.2589 55.8401 56.1889 55.9333 56.139 56.0374C56.0889 56.1414 56.0598 56.2543 56.0534 56.3696C56.047 56.4849 56.0633 56.6003 56.1015 56.7093C56.1397 56.8183 56.199 56.9187 56.2759 57.0047C56.3529 57.0908 56.4461 57.1608 56.5502 57.2109C57.2082 57.5283 57.8528 57.8726 58.4824 58.243V58.6355C58.4824 58.8686 58.5751 59.0922 58.7399 59.2571C58.9048 59.422 59.1284 59.5146 59.3616 59.5146C59.5948 59.5146 59.8184 59.422 59.9833 59.2571C60.1481 59.0922 60.2408 58.8686 60.2408 58.6355V44.324C60.2408 44.2085 60.2181 44.0942 60.174 43.9876C60.1299 43.8809 60.0652 43.784 59.9836 43.7024C59.902 43.6207 59.8051 43.5559 59.6984 43.5118C59.5918 43.4676 59.4775 43.4448 59.3621 43.4448L59.3619 43.4449ZM49.9399 53.7928L46.6509 53.7883L46.6559 49.1662H49.9399V53.7928Z" fill="url(#paint2_linear_59_27685)"/>
</g>
<defs>
<filter id="filter0_dd_59_27685" x="0" y="0.568359" width="106" height="106" filterUnits="userSpaceOnUse" color-interpolation-filters="sRGB">
<feFlood flood-opacity="0" result="BackgroundImageFix"/>
<feColorMatrix in="SourceAlpha" type="matrix" values="0 0 0 0 0 0 0 0 0 0 0 0 0 0 0 0 0 0 127 0" result="hardAlpha"/>
<feOffset dy="1"/>
<feGaussianBlur stdDeviation="1"/>
<feColorMatrix type="matrix" values="0 0 0 0 0.0627451 0 0 0 0 0.0941176 0 0 0 0 0.156863 0 0 0 0.06 0"/>
<feBlend mode="normal" in2="BackgroundImageFix" result="effect1_dropShadow_59_27685"/>
<feColorMatrix in="SourceAlpha" type="matrix" values="0 0 0 0 0 0 0 0 0 0 0 0 0 0 0 0 0 0 127 0" result="hardAlpha"/>
<feOffset dy="1"/>
<feGaussianBlur stdDeviation="1.5"/>
<feColorMatrix type="matrix" values="0 0 0 0 0.0627451 0 0 0 0 0.0941176 0 0 0 0 0.156863 0 0 0 0.1 0"/>
<feBlend mode="normal" in2="effect1_dropShadow_59_27685" result="effect2_dropShadow_59_27685"/>
<feBlend mode="normal" in="SourceGraphic" in2="effect2_dropShadow_59_27685" result="shape"/>
</filter>
<linearGradient id="paint0_linear_59_27685" x1="23" y1="52.7897" x2="89.5074" y2="52.7897" gradientUnits="userSpaceOnUse">
<stop stop-color="#8548DA"/>
<stop offset="0.375222" stop-color="#4C85F4"/>
<stop offset="0.651028" stop-color="#556BBB"/>
<stop offset="1" stop-color="#CC0F97"/>
</linearGradient>
<linearGradient id="paint1_linear_59_27685" x1="27.6436" y1="52.4582" x2="82.8694" y2="52.4582" gradientUnits="userSpaceOnUse">
<stop stop-color="#8548DA"/>
<stop offset="0.375222" stop-color="#4C85F4"/>
<stop offset="0.651028" stop-color="#556BBB"/>
<stop offset="1" stop-color="#CC0F97"/>
</linearGradient>
<linearGradient id="paint2_linear_59_27685" x1="44.8926" y1="58.5703" x2="77.0415" y2="58.5703" gradientUnits="userSpaceOnUse">
<stop stop-color="#8548DA"/>
<stop offset="0.375222" stop-color="#4C85F4"/>
<stop offset="0.651028" stop-color="#556BBB"/>
<stop offset="1" stop-color="#CC0F97"/>
</linearGradient>
</defs>
</svg>
