<svg width="106" height="107" viewBox="0 0 106 107" fill="none" xmlns="http://www.w3.org/2000/svg">
<g filter="url(#filter0_dd_59_27679)">
<rect x="3" y="2.56836" width="100" height="100" rx="16" fill="white"/>
<path d="M56.018 75.4775C56.018 75.6505 55.9493 75.8164 55.827 75.9387C55.7047 76.061 55.5388 76.1297 55.3658 76.1297H50.4533C50.2803 76.1297 50.1144 76.061 49.9921 75.9387C49.8698 75.8164 49.8011 75.6505 49.8011 75.4775C49.8011 75.3046 49.8698 75.1387 49.9921 75.0164C50.1144 74.8941 50.2803 74.8254 50.4533 74.8254H55.3658C55.5388 74.8254 55.7047 74.8941 55.827 75.0164C55.9493 75.1387 56.018 75.3046 56.018 75.4775ZM83 70.5616V78.0596C83 80.5457 80.9773 82.5682 78.4913 82.5682H64.3328C62.6427 82.5682 61.1674 81.6329 60.3957 80.253H44.1553C40.8805 80.253 38.2163 77.5888 38.2163 74.3141V56.2304H34.7625C34.5895 56.2304 34.4236 56.1617 34.3013 56.0394C34.179 55.9171 34.1103 55.7512 34.1103 55.5783V39.5326H27.6225C25.0735 39.5326 23 37.4589 23 34.9101V27.1907C23 24.6419 25.0735 22.5684 27.6223 22.5684H41.9023C44.4512 22.5684 46.5248 24.6419 46.5248 27.1907V31.0818H61.6635C63.6539 31.0818 65.5077 32.0984 66.6015 33.7321L74.0514 26.2822C74.1737 26.1599 74.3396 26.0912 74.5125 26.0912C74.6855 26.0912 74.8514 26.1599 74.9737 26.2822L77.9102 29.2186C77.9707 29.2791 78.0188 29.351 78.0516 29.4301C78.0844 29.5092 78.1012 29.594 78.1012 29.6796C78.1013 29.7653 78.0844 29.8501 78.0516 29.9292C78.0189 30.0083 77.9709 30.0802 77.9103 30.1408L67.6027 40.4485V61.5785H71.412C71.585 61.5785 71.7509 61.6472 71.8732 61.7696C71.9955 61.8919 72.0642 62.0577 72.0642 62.2307V66.0532H78.4913C80.9773 66.053 83 68.0756 83 70.5616ZM67.6027 62.8826V66.053H70.7599V62.8826H67.6027ZM58.248 43.9301L57.333 46.8592L60.2622 45.9442L76.5269 29.6795L74.5127 27.6656L58.248 43.9301ZM58.3489 47.9084L56.534 48.4753C56.4204 48.5109 56.2993 48.5146 56.1837 48.4862C56.0681 48.4577 55.9626 48.3982 55.8784 48.314C55.7943 48.2298 55.7347 48.1243 55.7063 48.0087C55.6778 47.8931 55.6816 47.772 55.7171 47.6584L56.3785 45.5411C55.3645 44.8222 54.1525 44.4356 52.9096 44.4346C49.8238 44.4346 47.275 46.7778 46.9489 49.7784H58.8701C58.799 49.1309 58.623 48.4993 58.3489 47.9084ZM52.9095 43.1302C54.3401 43.1302 55.504 41.9664 55.504 40.5358C55.504 39.1051 54.3401 37.9413 52.9095 37.9413C51.479 37.9413 50.3151 39.1051 50.3151 40.5358C50.3151 41.9664 51.4789 43.1302 52.9095 43.1302ZM27.6223 38.2282H41.9023C43.732 38.2282 45.2205 36.7397 45.2205 34.9102V27.1907C45.2205 25.3612 43.732 23.8727 41.9023 23.8727H27.6223C25.7929 23.8727 24.3043 25.3612 24.3043 27.1907V34.9101C24.3043 36.7396 25.7929 38.2282 27.6223 38.2282ZM38.2163 54.9261V39.5326H35.4147V54.9262H38.2163V54.9261ZM44.0061 57.3145V56.2304H39.5205V71.1155H59.8241V70.5616C59.8241 68.0755 61.8466 66.053 64.3327 66.053H66.2982V62.8826H61.8127V63.9667C61.8127 64.1396 61.744 64.3055 61.6217 64.4278C61.4994 64.5501 61.3335 64.6188 61.1605 64.6188H44.6583C44.4853 64.6188 44.3195 64.5501 44.1971 64.4278C44.0748 64.3055 44.0061 64.1396 44.0061 63.9667V60.4942C44.0061 60.3213 44.0748 60.1554 44.1971 60.0331C44.3195 59.9108 44.4853 59.8421 44.6583 59.8421H61.1607C61.2463 59.8421 61.3311 59.8589 61.4102 59.8917C61.4894 59.9245 61.5612 59.9725 61.6218 60.0331C61.6824 60.0936 61.7304 60.1655 61.7632 60.2447C61.796 60.3238 61.8128 60.4086 61.8128 60.4942V61.5784H66.2983V41.7527L61.071 46.98C60.9965 47.0546 60.905 47.1099 60.8043 47.1414L59.6034 47.5165C60.0031 48.436 60.2095 49.4278 60.2098 50.4304C60.2098 50.6034 60.1411 50.7693 60.0188 50.8916C59.8965 51.0139 59.7306 51.0826 59.5576 51.0826H46.2613C46.0884 51.0826 45.9225 51.0139 45.8002 50.8916C45.6779 50.7693 45.6092 50.6034 45.6092 50.4304C45.6092 47.2679 47.6309 44.5697 50.4495 43.5577C49.5722 42.8421 49.0107 41.7534 49.0107 40.5356C49.0107 38.3859 50.7597 36.6368 52.9093 36.6368C55.059 36.6368 56.8082 38.3858 56.8082 40.5356C56.8082 41.7534 56.2467 42.8422 55.3692 43.5577C55.864 43.7346 56.3383 43.9642 56.7839 44.2427L57.0509 43.3878C57.0824 43.2872 57.1377 43.1958 57.2123 43.1212L65.6548 34.6787C64.8246 33.2738 63.3042 32.3859 61.6636 32.3859H46.5248V34.91C46.5248 37.4588 44.4512 39.5323 41.9023 39.5323H39.5205V54.926H44.0061V53.8418C44.0061 53.6688 44.0748 53.5029 44.1971 53.3806C44.3195 53.2583 44.4853 53.1896 44.6583 53.1896H61.1607C61.3336 53.1896 61.4995 53.2583 61.6218 53.3806C61.7441 53.5029 61.8128 53.6688 61.8128 53.8418V57.3142C61.8128 57.4872 61.7441 57.6531 61.6218 57.7754C61.4995 57.8977 61.3336 57.9664 61.1607 57.9664H44.6583C44.5727 57.9664 44.4879 57.9496 44.4087 57.9169C44.3296 57.8841 44.2577 57.8361 44.1972 57.7756C44.1366 57.715 44.0886 57.6431 44.0558 57.564C44.023 57.4849 44.0061 57.4001 44.0061 57.3145ZM60.5085 56.6623V54.4942H45.3105V56.6623H60.5085ZM45.3105 61.1464V63.3145H60.5085V61.1464H45.3105ZM59.9127 78.9488C59.8538 78.6561 59.8242 78.3583 59.8242 78.0597V72.42H39.5206V74.3142C39.5206 76.8698 41.5997 78.9488 44.1553 78.9488H59.9127ZM81.6957 70.5616C81.6957 68.7947 80.2581 67.3573 78.4913 67.3573H64.3328C62.566 67.3573 61.1286 68.7948 61.1286 70.5616V78.0596C61.1286 79.8265 62.5661 81.2639 64.3328 81.2639H78.4913C80.2581 81.264 81.6957 79.8265 81.6957 78.0597V70.5616ZM40.8277 28.0015H28.6973C28.5243 28.0015 28.3584 28.0702 28.2361 28.1925C28.1138 28.3148 28.0451 28.4807 28.0451 28.6537C28.0451 28.8266 28.1138 28.9925 28.2361 29.1148C28.3584 29.2371 28.5243 29.3058 28.6973 29.3058H40.8277C41.0007 29.3058 41.1665 29.2371 41.2889 29.1148C41.4112 28.9925 41.4799 28.8266 41.4799 28.6537C41.4799 28.4807 41.4112 28.3148 41.2889 28.1925C41.1665 28.0702 41.0007 28.0015 40.8277 28.0015ZM40.8277 32.795H28.6973C28.5243 32.795 28.3584 32.8637 28.2361 32.986C28.1138 33.1083 28.0451 33.2742 28.0451 33.4471C28.0451 33.6201 28.1138 33.786 28.2361 33.9083C28.3584 34.0306 28.5243 34.0993 28.6973 34.0993H40.8277C41.0007 34.0993 41.1665 34.0306 41.2889 33.9083C41.4112 33.786 41.4799 33.6201 41.4799 33.4471C41.4799 33.2742 41.4112 33.1083 41.2889 32.986C41.1665 32.8637 41.0007 32.795 40.8277 32.795ZM77.4773 76.0551H65.3468C65.1739 76.0551 65.008 76.1238 64.8857 76.2461C64.7634 76.3684 64.6947 76.5343 64.6947 76.7073C64.6947 76.8802 64.7634 77.0461 64.8857 77.1684C65.008 77.2907 65.1739 77.3594 65.3468 77.3594H77.4773C77.6502 77.3594 77.8161 77.2907 77.9384 77.1684C78.0607 77.0461 78.1294 76.8802 78.1294 76.7073C78.1294 76.5343 78.0607 76.3684 77.9384 76.2461C77.8161 76.1238 77.6502 76.0551 77.4773 76.0551ZM77.4773 71.2616H65.3468C65.1739 71.2616 65.008 71.3303 64.8857 71.4526C64.7634 71.5749 64.6947 71.7408 64.6947 71.9138C64.6947 72.0868 64.7634 72.2526 64.8857 72.375C65.008 72.4973 65.1739 72.566 65.3468 72.566H77.4773C77.6502 72.566 77.8161 72.4973 77.9384 72.375C78.0607 72.2526 78.1294 72.0868 78.1294 71.9138C78.1294 71.7408 78.0607 71.5749 77.9384 71.4526C77.8161 71.3303 77.6502 71.2616 77.4773 71.2616Z" fill="url(#paint0_linear_59_27679)"/>
</g>
<defs>
<filter id="filter0_dd_59_27679" x="0" y="0.568359" width="106" height="106" filterUnits="userSpaceOnUse" color-interpolation-filters="sRGB">
<feFlood flood-opacity="0" result="BackgroundImageFix"/>
<feColorMatrix in="SourceAlpha" type="matrix" values="0 0 0 0 0 0 0 0 0 0 0 0 0 0 0 0 0 0 127 0" result="hardAlpha"/>
<feOffset dy="1"/>
<feGaussianBlur stdDeviation="1"/>
<feColorMatrix type="matrix" values="0 0 0 0 0.0627451 0 0 0 0 0.0941176 0 0 0 0 0.156863 0 0 0 0.06 0"/>
<feBlend mode="normal" in2="BackgroundImageFix" result="effect1_dropShadow_59_27679"/>
<feColorMatrix in="SourceAlpha" type="matrix" values="0 0 0 0 0 0 0 0 0 0 0 0 0 0 0 0 0 0 127 0" result="hardAlpha"/>
<feOffset dy="1"/>
<feGaussianBlur stdDeviation="1.5"/>
<feColorMatrix type="matrix" values="0 0 0 0 0.0627451 0 0 0 0 0.0941176 0 0 0 0 0.156863 0 0 0 0.1 0"/>
<feBlend mode="normal" in2="effect1_dropShadow_59_27679" result="effect2_dropShadow_59_27679"/>
<feBlend mode="normal" in="SourceGraphic" in2="effect2_dropShadow_59_27679" result="shape"/>
</filter>
<linearGradient id="paint0_linear_59_27679" x1="23" y1="52.7811" x2="89.5074" y2="52.7811" gradientUnits="userSpaceOnUse">
<stop stop-color="#8548DA"/>
<stop offset="0.375222" stop-color="#4C85F4"/>
<stop offset="0.651028" stop-color="#556BBB"/>
<stop offset="1" stop-color="#CC0F97"/>
</linearGradient>
</defs>
</svg>
