<svg width="106" height="107" viewBox="0 0 106 107" fill="none" xmlns="http://www.w3.org/2000/svg">
<g filter="url(#filter0_dd_59_27682)">
<rect x="3" y="2.56836" width="100" height="100" rx="16" fill="white"/>
<path d="M56 28.5684H50C49.7348 28.5684 49.4804 28.463 49.2929 28.2755C49.1054 28.0879 49 27.8336 49 27.5684C49 27.3031 49.1054 27.0488 49.2929 26.8613C49.4804 26.6737 49.7348 26.5684 50 26.5684H56C56.2652 26.5684 56.5196 26.6737 56.7071 26.8613C56.8946 27.0488 57 27.3031 57 27.5684C57 27.8336 56.8946 28.0879 56.7071 28.2755C56.5196 28.463 56.2652 28.5684 56 28.5684ZM64 82.5684H42C40.6744 82.5668 39.4036 82.0395 38.4662 81.1021C37.5289 80.1648 37.0016 78.894 37 77.5684V43.5684C37 43.3031 37.1054 43.0488 37.2929 42.8613C37.4804 42.6737 37.7348 42.5684 38 42.5684C38.2652 42.5684 38.5196 42.6737 38.7071 42.8613C38.8946 43.0488 39 43.3031 39 43.5684V77.5684C39 79.2224 40.346 80.5684 42 80.5684H64C65.654 80.5684 67 79.2224 67 77.5684V43.5684C67 43.3031 67.1054 43.0488 67.2929 42.8613C67.4804 42.6737 67.7348 42.5684 68 42.5684C68.2652 42.5684 68.5196 42.6737 68.7071 42.8613C68.8946 43.0488 69 43.3031 69 43.5684V77.5684C69 80.3244 66.758 82.5684 64 82.5684Z" fill="url(#paint0_linear_59_27682)"/>
<path d="M68 50.5684C67.7348 50.5684 67.4804 50.463 67.2929 50.2755C67.1054 50.0879 67 49.8336 67 49.5684V27.5684C67 25.9144 65.654 24.5684 64 24.5684H42C40.346 24.5684 39 25.9144 39 27.5684V49.5684C39 49.8336 38.8946 50.0879 38.7071 50.2755C38.5196 50.463 38.2652 50.5684 38 50.5684C37.7348 50.5684 37.4804 50.463 37.2929 50.2755C37.1054 50.0879 37 49.8336 37 49.5684V27.5684C37 24.8124 39.242 22.5684 42 22.5684H64C66.758 22.5684 69 24.8124 69 27.5684V49.5684C69 49.8336 68.8946 50.0879 68.7071 50.2755C68.5196 50.463 68.2652 50.5684 68 50.5684ZM74 32.6684C73.448 32.6684 73 32.3204 73 31.7684V31.5684C73 31.3031 73.1054 31.0488 73.2929 30.8613C73.4804 30.6737 73.7348 30.5684 74 30.5684C74.2652 30.5684 74.5196 30.6737 74.7071 30.8613C74.8946 31.0488 75 31.3031 75 31.5684C75 32.1204 74.552 32.6684 74 32.6684ZM74 36.6684C73.448 36.6684 73 36.3204 73 35.7684V35.5684C73 35.3031 73.1054 35.0488 73.2929 34.8613C73.4804 34.6737 73.7348 34.5684 74 34.5684C74.2652 34.5684 74.5196 34.6737 74.7071 34.8613C74.8946 35.0488 75 35.3031 75 35.5684C75 36.1204 74.552 36.6684 74 36.6684ZM74 40.6684C73.448 40.6684 73 40.3204 73 39.7684V39.5684C73 39.3031 73.1054 39.0488 73.2929 38.8613C73.4804 38.6737 73.7348 38.5684 74 38.5684C74.2652 38.5684 74.5196 38.6737 74.7071 38.8613C74.8946 39.0488 75 39.3031 75 39.5684C75 40.1204 74.552 40.6684 74 40.6684ZM32 66.4684C31.448 66.4684 31 66.1204 31 65.5684V65.3684C31 65.1031 31.1054 64.8488 31.2929 64.6613C31.4804 64.4737 31.7348 64.3684 32 64.3684C32.2652 64.3684 32.5196 64.4737 32.7071 64.6613C32.8946 64.8488 33 65.1031 33 65.3684C33 65.9204 32.552 66.4684 32 66.4684ZM32 70.4684C31.448 70.4684 31 70.1204 31 69.5684V69.3684C31 69.1031 31.1054 68.8488 31.2929 68.6613C31.4804 68.4737 31.7348 68.3684 32 68.3684C32.2652 68.3684 32.5196 68.4737 32.7071 68.6613C32.8946 68.8488 33 69.1031 33 69.3684C33 69.9204 32.552 70.4684 32 70.4684ZM32 74.4684C31.448 74.4684 31 74.1204 31 73.5684V73.3684C31 73.1031 31.1054 72.8488 31.2929 72.6613C31.4804 72.4737 31.7348 72.3684 32 72.3684C32.2652 72.3684 32.5196 72.4737 32.7071 72.6613C32.8946 72.8488 33 73.1031 33 73.3684C33 73.9204 32.552 74.4684 32 74.4684Z" fill="url(#paint1_linear_59_27682)"/>
<path d="M70.682 74.5684C70.5328 74.5684 70.3855 74.5351 70.2509 74.4708C70.1163 74.4065 69.9977 74.313 69.904 74.197C69.8102 74.0809 69.7436 73.9454 69.709 73.8003C69.6744 73.6552 69.6727 73.5042 69.704 73.3584L70.364 70.2984C70.4034 70.1146 70.4939 69.9457 70.6252 69.8112C70.7565 69.6767 70.9232 69.5821 71.106 69.5384C72.071 69.3017 72.9934 68.9165 73.84 68.3964C73.9996 68.2989 74.1834 68.2482 74.3704 68.25C74.5575 68.2517 74.7402 68.3059 74.898 68.4064L76.878 69.6724L78.104 68.4364L76.838 66.4724C76.7364 66.3144 76.6812 66.1311 76.6787 65.9434C76.6762 65.7556 76.7266 65.5709 76.824 65.4104C77.3443 64.5641 77.729 63.6416 77.964 62.6764C78.008 62.4941 78.1021 62.3279 78.2357 62.1964C78.3693 62.0649 78.5371 61.9734 78.72 61.9324L81 61.4264V59.7124L78.722 59.2064C78.5391 59.1653 78.3713 59.0738 78.2377 58.9423C78.1041 58.8109 78.01 58.6446 77.966 58.4624C77.7301 57.4974 77.3455 56.575 76.826 55.7284C76.7278 55.5685 76.6768 55.3842 76.6789 55.1966C76.681 55.0091 76.7362 54.8259 76.838 54.6684L78.106 52.6864L76.882 51.4624L74.9 52.7304C74.7424 52.8312 74.5596 52.8857 74.3724 52.8875C74.1853 52.8892 74.0015 52.8383 73.842 52.7404C72.995 52.2209 72.0728 51.8357 71.108 51.5984C70.9252 51.5546 70.7585 51.46 70.6272 51.3255C70.4959 51.191 70.4054 51.0221 70.366 50.8384L69.874 48.5684H69C68.7348 48.5684 68.4804 48.463 68.2929 48.2755C68.1054 48.0879 68 47.8336 68 47.5684C68 47.3031 68.1054 47.0488 68.2929 46.8613C68.4804 46.6737 68.7348 46.5684 69 46.5684H70.68C70.9085 46.5687 71.1299 46.6473 71.3074 46.7911C71.485 46.9348 71.608 47.135 71.656 47.3584L72.19 49.8244C72.922 50.0464 73.64 50.3464 74.332 50.7204L76.48 49.3464C76.6721 49.2236 76.9003 49.1702 77.127 49.1949C77.3536 49.2197 77.5649 49.3211 77.726 49.4824L80.088 51.8424C80.249 52.0037 80.35 52.2152 80.3744 52.4418C80.3988 52.6684 80.345 52.8965 80.222 53.0884L78.848 55.2364C79.222 55.9304 79.522 56.6484 79.744 57.3824L82.214 57.9304C82.674 58.0324 83 58.4404 83 58.9084V62.2284C82.9999 62.456 82.9222 62.6768 82.7796 62.8542C82.6371 63.0317 82.4382 63.1552 82.216 63.2044L79.746 63.7524C79.5203 64.4954 79.2201 65.2137 78.85 65.8964L80.222 68.0244C80.3462 68.2156 80.4011 68.4436 80.3774 68.6704C80.3538 68.8971 80.253 69.1089 80.092 69.2704L77.73 71.6504C77.5688 71.8121 77.3573 71.914 77.1303 71.9391C76.9033 71.9642 76.6746 71.911 76.482 71.7884L74.334 70.4144C73.6517 70.7837 72.9341 71.0839 72.192 71.3104L71.658 73.7764C71.6101 73.9999 71.4872 74.2004 71.3096 74.3444C71.1321 74.4885 70.9106 74.5675 70.682 74.5684Z" fill="url(#paint2_linear_59_27682)"/>
<path d="M71.7821 65.7246C71.568 65.7243 71.3596 65.6552 71.1877 65.5275C71.0157 65.3998 70.8893 65.2203 70.8271 65.0154C70.7648 64.8104 70.77 64.591 70.8418 64.3892C70.9137 64.1875 71.0484 64.0141 71.2261 63.8946C71.9937 63.3774 72.5584 62.6101 72.824 61.7234C73.0897 60.8368 73.0399 59.8854 72.6832 59.0313C72.3265 58.1772 71.6849 57.473 70.8676 57.0386C70.0502 56.6042 69.1076 56.4664 68.2001 56.6486C68.0714 56.675 67.9388 56.6758 67.8098 56.651C67.6808 56.6261 67.558 56.5761 67.4483 56.5037C67.3386 56.4314 67.2443 56.3382 67.1706 56.2294C67.097 56.1206 67.0455 55.9983 67.0191 55.8696C66.9927 55.741 66.9919 55.6083 67.0168 55.4793C67.0417 55.3503 67.0917 55.2275 67.164 55.1178C67.2364 55.0081 67.3296 54.9138 67.4384 54.8402C67.5472 54.7665 67.6694 54.715 67.7981 54.6886C68.6699 54.5119 69.5701 54.5309 70.4337 54.7443C71.2973 54.9578 72.1027 55.3603 72.7918 55.9229C73.4808 56.4855 74.0364 57.1941 74.4183 57.9975C74.8002 58.8009 74.9989 59.6791 75.0001 60.5686C75.0003 61.5545 74.7576 62.5252 74.2932 63.3949C73.8289 64.2645 73.1574 65.0063 72.3381 65.5546C72.1738 65.6652 71.9802 65.7244 71.7821 65.7246ZM37.0001 50.5686C35.711 50.5704 34.4556 50.1567 33.42 49.3889C32.3844 48.6212 31.6238 47.5402 31.2507 46.3062C30.8777 45.0722 30.9122 43.7509 31.349 42.538C31.7859 41.3252 32.6019 40.2854 33.6761 39.5726C33.8968 39.4349 34.1625 39.3885 34.4167 39.4434C34.671 39.4983 34.8939 39.6501 35.0381 39.8667C35.1823 40.0832 35.2364 40.3474 35.189 40.6032C35.1416 40.8589 34.9963 41.0862 34.7841 41.2366C34.0166 41.7519 33.4509 42.5169 33.1833 43.4018C32.9156 44.2867 32.9624 45.237 33.3157 46.0913C33.669 46.9456 34.3071 47.6513 35.1216 48.0887C35.9361 48.526 36.8768 48.6681 37.7841 48.4906C38.0442 48.4393 38.314 48.493 38.5347 48.6398C38.7554 48.7867 38.9091 49.0149 38.9621 49.2746C38.9881 49.4034 38.9883 49.5359 38.9629 49.6647C38.9376 49.7936 38.887 49.9161 38.8142 50.0253C38.7413 50.1346 38.6477 50.2284 38.5385 50.3014C38.4294 50.3744 38.3069 50.4251 38.1781 50.4506C37.7904 50.5296 37.3958 50.5691 37.0001 50.5686Z" fill="url(#paint3_linear_59_27682)"/>
<path d="M37 58.5682H35.32C35.0915 58.5678 34.8701 58.4892 34.6925 58.3455C34.515 58.2017 34.392 58.0015 34.344 57.7782L33.81 55.3122C33.0678 55.0861 32.3502 54.7859 31.668 54.4162L29.52 55.7902C29.3279 55.9129 29.0997 55.9664 28.873 55.9416C28.6464 55.9169 28.4351 55.8155 28.274 55.6542L25.912 53.2942C25.751 53.1329 25.65 52.9214 25.6256 52.6948C25.6012 52.4682 25.655 52.2401 25.778 52.0482L27.152 49.9002C26.7823 49.2167 26.4821 48.4977 26.256 47.7542L23.786 47.2062C23.5632 47.157 23.3639 47.0333 23.221 46.8554C23.0781 46.6776 23.0001 46.4563 23 46.2282V42.9082C23.0001 42.6806 23.0778 42.4598 23.2204 42.2823C23.3629 42.1049 23.5618 41.9814 23.784 41.9322L26.254 41.3842C26.476 40.6502 26.776 39.9322 27.15 39.2402L25.78 37.1102C25.6558 36.919 25.6009 36.691 25.6246 36.4642C25.6482 36.2374 25.749 36.0256 25.91 35.8642L28.272 33.4842C28.4326 33.3214 28.6443 33.2189 28.8715 33.1938C29.0988 33.1686 29.3277 33.2225 29.52 33.3462L31.668 34.7202C32.3503 34.3508 33.0679 34.0507 33.81 33.8242L34.344 31.3582C34.3682 31.2265 34.4187 31.101 34.4923 30.9891C34.5659 30.8773 34.6613 30.7814 34.7727 30.7071C34.8841 30.6328 35.0093 30.5816 35.1409 30.5566C35.2725 30.5316 35.4077 30.5333 35.5386 30.5616C35.6695 30.5899 35.7934 30.6441 35.9029 30.7212C36.0124 30.7983 36.1054 30.8965 36.1762 31.0102C36.247 31.1238 36.2943 31.2506 36.3152 31.3828C36.3361 31.5151 36.3303 31.6502 36.298 31.7802L35.638 34.8402C35.5986 35.024 35.5081 35.1929 35.3768 35.3274C35.2455 35.4618 35.0788 35.5564 34.896 35.6002C33.9305 35.8372 33.0075 36.2224 32.16 36.7422C32.0004 36.8396 31.8166 36.8903 31.6296 36.8886C31.4425 36.8868 31.2598 36.8326 31.102 36.7322L29.122 35.4662L27.894 36.7022L29.16 38.6662C29.2625 38.8238 29.3183 39.0072 29.3207 39.1952C29.3232 39.3831 29.2723 39.568 29.174 39.7282C28.6537 40.5745 28.269 41.497 28.034 42.4622C27.99 42.6444 27.8959 42.8107 27.7623 42.9422C27.6287 43.0737 27.4609 43.1651 27.278 43.2062L25 43.7102V45.4242L27.278 45.9302C27.4609 45.9713 27.6287 46.0627 27.7623 46.1942C27.8959 46.3257 27.99 46.492 28.034 46.6742C28.26 47.6182 28.646 48.5382 29.174 49.4082C29.374 49.7342 29.37 50.1462 29.162 50.4682L27.894 52.4482L29.118 53.6722L31.1 52.4042C31.2579 52.3042 31.4407 52.2503 31.6276 52.2485C31.8145 52.2467 31.9982 52.2972 32.158 52.3942C33.03 52.9242 33.95 53.3082 34.892 53.5362C35.0748 53.5799 35.2415 53.6745 35.3728 53.809C35.5041 53.9435 35.5946 54.1124 35.634 54.2962L36.126 56.5682H37C37.2652 56.5682 37.5196 56.6735 37.7071 56.8611C37.8946 57.0486 38 57.303 38 57.5682C38 57.8334 37.8946 58.0878 37.7071 58.2753C37.5196 58.4628 37.2652 58.5682 37 58.5682ZM52 57.5682C51.848 57.5685 51.6979 57.5341 51.5612 57.4676C51.4245 57.4011 51.3047 57.3043 51.2112 57.1845C51.1176 57.0647 51.0526 56.9251 51.0212 56.7763C50.9898 56.6276 50.9928 56.4736 51.03 56.3262L53.03 48.3262C53.0608 48.1983 53.1168 48.0778 53.1947 47.9717C53.2726 47.8657 53.3708 47.7761 53.4836 47.7084C53.5963 47.6406 53.7215 47.596 53.8517 47.5771C53.9819 47.5582 54.1146 47.5653 54.242 47.5982C54.3695 47.6298 54.4895 47.6862 54.5952 47.7642C54.7008 47.8423 54.79 47.9404 54.8576 48.053C54.9253 48.1656 54.97 48.2905 54.9893 48.4204C55.0086 48.5503 55.002 48.6828 54.97 48.8102L52.97 56.8102C52.9167 57.027 52.792 57.2195 52.6161 57.357C52.4402 57.4944 52.2232 57.5688 52 57.5682ZM58 57.5682C57.8024 57.5681 57.6092 57.5095 57.4448 57.3998C57.2805 57.29 57.1523 57.134 57.0766 56.9515C57.0008 56.769 56.9809 56.5681 57.0192 56.3742C57.0575 56.1803 57.1525 56.0022 57.292 55.8622L60.586 52.5682L57.294 49.2762C57.1118 49.0876 57.011 48.835 57.0133 48.5728C57.0156 48.3106 57.1208 48.0598 57.3062 47.8744C57.4916 47.689 57.7424 47.5838 58.0046 47.5815C58.2668 47.5792 58.5194 47.68 58.708 47.8622L62.708 51.8622C62.8955 52.0497 63.0008 52.304 63.0008 52.5692C63.0008 52.8344 62.8955 53.0887 62.708 53.2762L58.708 57.2762C58.5199 57.4632 58.2653 57.5682 58 57.5682ZM48 57.5682C47.7347 57.5682 47.4801 57.4632 47.292 57.2762L43.292 53.2762C43.1045 53.0887 42.9992 52.8344 42.9992 52.5692C42.9992 52.304 43.1045 52.0497 43.292 51.8622L47.292 47.8622C47.4806 47.68 47.7332 47.5792 47.9954 47.5815C48.2576 47.5838 48.5084 47.689 48.6938 47.8744C48.8792 48.0598 48.9844 48.3106 48.9867 48.5728C48.989 48.835 48.8882 49.0876 48.706 49.2762L45.414 52.5682L48.706 55.8602C48.8461 55.9999 48.9416 56.1781 48.9804 56.3721C49.0192 56.5661 48.9995 56.7673 48.924 56.9502C48.8484 57.1331 48.7202 57.2894 48.5558 57.3994C48.3913 57.5094 48.1979 57.5681 48 57.5682Z" fill="url(#paint4_linear_59_27682)"/>
</g>
<defs>
<filter id="filter0_dd_59_27682" x="0" y="0.568359" width="106" height="106" filterUnits="userSpaceOnUse" color-interpolation-filters="sRGB">
<feFlood flood-opacity="0" result="BackgroundImageFix"/>
<feColorMatrix in="SourceAlpha" type="matrix" values="0 0 0 0 0 0 0 0 0 0 0 0 0 0 0 0 0 0 127 0" result="hardAlpha"/>
<feOffset dy="1"/>
<feGaussianBlur stdDeviation="1"/>
<feColorMatrix type="matrix" values="0 0 0 0 0.0627451 0 0 0 0 0.0941176 0 0 0 0 0.156863 0 0 0 0.06 0"/>
<feBlend mode="normal" in2="BackgroundImageFix" result="effect1_dropShadow_59_27682"/>
<feColorMatrix in="SourceAlpha" type="matrix" values="0 0 0 0 0 0 0 0 0 0 0 0 0 0 0 0 0 0 127 0" result="hardAlpha"/>
<feOffset dy="1"/>
<feGaussianBlur stdDeviation="1.5"/>
<feColorMatrix type="matrix" values="0 0 0 0 0.0627451 0 0 0 0 0.0941176 0 0 0 0 0.156863 0 0 0 0.1 0"/>
<feBlend mode="normal" in2="effect1_dropShadow_59_27682" result="effect2_dropShadow_59_27682"/>
<feBlend mode="normal" in="SourceGraphic" in2="effect2_dropShadow_59_27682" result="shape"/>
</filter>
<linearGradient id="paint0_linear_59_27682" x1="37" y1="54.7669" x2="72.4706" y2="54.7669" gradientUnits="userSpaceOnUse">
<stop stop-color="#8548DA"/>
<stop offset="0.375222" stop-color="#4C85F4"/>
<stop offset="0.651028" stop-color="#556BBB"/>
<stop offset="1" stop-color="#CC0F97"/>
</linearGradient>
<linearGradient id="paint1_linear_59_27682" x1="31" y1="48.7024" x2="79.7721" y2="48.7024" gradientUnits="userSpaceOnUse">
<stop stop-color="#8548DA"/>
<stop offset="0.375222" stop-color="#4C85F4"/>
<stop offset="0.651028" stop-color="#556BBB"/>
<stop offset="1" stop-color="#CC0F97"/>
</linearGradient>
<linearGradient id="paint2_linear_59_27682" x1="68" y1="60.6677" x2="84.6269" y2="60.6677" gradientUnits="userSpaceOnUse">
<stop stop-color="#8548DA"/>
<stop offset="0.375222" stop-color="#4C85F4"/>
<stop offset="0.651028" stop-color="#556BBB"/>
<stop offset="1" stop-color="#CC0F97"/>
</linearGradient>
<linearGradient id="paint3_linear_59_27682" x1="30.9941" y1="52.666" x2="79.7729" y2="52.666" gradientUnits="userSpaceOnUse">
<stop stop-color="#8548DA"/>
<stop offset="0.375222" stop-color="#4C85F4"/>
<stop offset="0.651028" stop-color="#556BBB"/>
<stop offset="1" stop-color="#CC0F97"/>
</linearGradient>
<linearGradient id="paint4_linear_59_27682" x1="23" y1="44.653" x2="67.3391" y2="44.653" gradientUnits="userSpaceOnUse">
<stop stop-color="#8548DA"/>
<stop offset="0.375222" stop-color="#4C85F4"/>
<stop offset="0.651028" stop-color="#556BBB"/>
<stop offset="1" stop-color="#CC0F97"/>
</linearGradient>
</defs>
</svg>
