<svg width="242" height="138" viewBox="0 0 242 138" fill="none" xmlns="http://www.w3.org/2000/svg">
<g clip-path="url(#clip0_27_20684)">
<path fill-rule="evenodd" clip-rule="evenodd" d="M71.7904 7.0153C70.5604 6.89562 69.4132 7.15023 68.3294 7.73118C69.4727 7.45736 70.715 7.68771 71.7904 7.0153ZM240.609 12.3167H246.557V12.1885H240.609V12.3167ZM166.257 12.9659C166.257 12.9049 166.258 12.8428 166.258 12.7819H157.997C157.996 12.8428 157.994 12.9049 157.993 12.9659H166.257ZM203.567 15.9046C203.567 15.9299 203.569 15.9553 203.569 15.9807H212.511L212.508 15.9046H203.567ZM64.5851 128.013C63.4333 127.785 62.3467 127.639 61.3456 126.921C60.6182 126.399 59.6479 126.701 58.7912 127.809C60.9577 127.033 62.6058 129.216 64.5851 128.013ZM231.965 14.5185C236.953 13.8608 241.945 13.4046 246.978 13.5666C243.888 12.9936 234.91 13.5418 231.965 14.5185ZM238.707 7.19879C243.493 6.9165 248.16 7.80232 252.841 8.52724C248.241 6.77818 243.507 6.51114 238.707 7.19879ZM220.86 16.1671C212.722 17.2037 204.575 17.4718 196.408 16.5515C204.578 17.7066 212.734 17.9388 220.86 16.1671ZM15.068 32.0152C17.7454 29.6447 20.5387 27.4344 23.4735 25.4047C26.378 23.3958 29.3212 21.447 32.3045 19.5676C26.0058 22.9493 19.9057 26.6162 15.068 32.0152ZM210.837 10.5727C210.643 10.5597 210.449 10.5388 210.255 10.5366C203.457 10.4598 196.692 9.99626 189.981 8.85638C182.728 7.62447 175.439 6.72115 168.076 6.48121C159.966 6.21586 151.858 5.83308 143.747 5.62023C138.938 5.49489 134.125 5.59709 129.767 5.59709C138.166 6.20288 147.05 6.11537 155.915 6.56195C163.765 6.95772 171.637 6.9611 179.445 8.02251C185.914 8.90211 192.376 9.83874 198.848 10.6912C202.834 11.2152 206.837 11.1695 210.837 10.5727ZM275.763 57.2907C275.763 51.9544 275.972 46.6067 275.698 41.2845C275.474 36.9598 275.029 32.546 272.379 28.8373C266.202 20.1902 257.61 15.5849 247.264 14.2814C241.081 13.5023 234.951 14.645 228.856 15.6685C222.711 16.7006 216.555 17.67 210.323 17.9313C203.666 18.2103 197.053 17.5498 190.525 16.3009C176.156 13.5508 161.565 13.553 147.05 12.8045C135.539 12.2111 124.017 11.8074 112.546 10.6664C103.548 9.771 88.7766 10.5298 79.5005 12.2376C78.1728 12.4821 76.8416 12.7107 75.5151 12.9484C66.8533 14.4987 58.3652 16.7283 49.9243 19.1938C39.5014 22.2385 30.0363 27.1328 21.379 33.6683C19.2783 35.2542 17.4525 36.9705 16.855 39.7352C16.5424 41.1834 15.751 42.5401 14.6452 43.5529C12.743 45.2958 11.3777 47.5078 9.58447 49.3065C6.10606 52.7962 5.31513 57.1784 5.31513 61.7295C5.31458 68.8855 7.74521 75.5543 10.5182 81.9745C13.2524 88.3057 17.6498 93.6393 22.5319 98.4878C28.8598 104.771 35.5642 110.574 43.6115 114.613C49.5572 117.597 55.451 120.683 61.8194 122.71C64.2309 123.477 66.6441 124.227 69.0709 124.945C81.4111 128.593 93.8998 131.731 106.088 135.909C117.618 139.859 129.215 143.609 141.047 146.574C147.455 148.179 153.939 149.354 160.468 150.336C169.161 151.643 177.875 152.662 186.681 152.536C198.698 152.365 210.685 151.882 222.357 148.561C228.571 146.792 234.571 144.52 240.045 141.001C247.057 136.494 251.612 129.805 255.758 122.832C260.754 114.426 265.333 105.781 269.477 96.9121C271.668 92.2222 273.602 87.4492 274.55 82.3037C276.079 74.0152 276.019 65.6595 275.763 57.2907ZM67.9207 133.903C66.2944 133.501 66.2681 131.991 65.8527 130.791C65.6924 130.329 65.964 129.823 66.3849 129.449C66.7003 129.17 67.0882 128.94 66.9584 128.334C66.6677 126.971 67.4019 127.091 68.3542 127.387C70.0861 127.926 71.846 128.373 73.66 128.641C73.3947 128.522 73.1406 128.354 72.8629 128.295C70.4323 127.785 68.2889 126.53 65.9971 125.663C63.1893 124.602 60.2185 123.942 57.4786 122.74C52.1188 120.387 46.4633 118.71 41.4199 115.602C40.4289 114.992 39.4091 114.167 37.8717 113.944C38.8993 115.101 40.064 115.633 41.1276 116.226C45.696 118.772 50.4381 120.956 55.2313 123.051C58.4147 124.443 61.6772 125.546 64.9583 126.634C65.2961 126.745 65.6385 126.849 65.9781 126.956C66.7397 127.198 66.5334 127.8 66.5126 128.352C66.4805 129.226 65.9274 128.549 65.6418 128.636C65.3175 128.735 64.9408 128.66 64.5631 128.66C64.6013 129.193 65.1112 129.035 65.3412 129.274C65.8048 129.755 65.5328 130.182 65.3748 130.651C65.1421 131.345 64.6795 131.047 64.2494 130.957C63.3012 130.761 62.7683 129.404 61.4079 130.117C61.0229 130.319 60.115 129.457 59.6873 128.841C59.4276 128.468 59.2185 128.059 58.7794 128.325C57.3128 129.21 56.0553 128.011 55.0891 127.537C53.6837 126.846 52.1728 126.941 50.8417 126.291L50.8889 126.316C50.084 125.215 48.8293 124.953 47.6623 124.531C47.2183 125.031 48.1181 125.176 47.855 125.641C47.3615 125.854 46.9337 125.513 46.4868 125.347C45.8752 125.119 45.4508 124.768 44.5959 125.154C43.7864 125.52 42.7802 124.617 42.1467 123.95C40.9235 122.663 39.8358 121.507 37.7621 121.68C36.9347 121.748 35.9987 120.783 35.1471 120.234C30.2926 117.107 25.7905 113.496 21.6769 109.468C17.5723 105.447 13.6521 101.265 10.5333 96.3113C8.75422 93.4863 6.7806 90.8005 5.53099 87.6869C2.2791 79.5802 -0.22854 71.3041 0.0165475 62.42C0.172818 56.7747 1.35103 51.3779 3.77716 46.272C3.97334 45.8586 4.20213 45.4335 4.51243 45.1056C7.57488 41.8711 9.58842 37.9794 11.6194 34.0641C14.1877 29.1128 18.7274 26.1064 23.0665 22.9347C32.3859 16.1225 43.0416 12.3088 53.9569 9.11383C65.543 5.72242 77.3476 3.44775 89.3608 2.2102C98.1923 1.30067 106.976 1.579 115.791 2.48063C125.044 3.42686 134.358 3.25072 143.645 3.57648C155.839 4.00329 168.071 3.82432 180.208 5.38255C186.026 6.13005 191.824 7.02207 197.629 7.86104C205.599 9.01277 213.505 8.30875 221.395 7.05257C228.454 5.92906 235.522 4.50633 242.687 4.81571C257.756 5.46667 269.404 11.926 277.414 25.1845C280.844 30.8641 281.457 36.8096 281.684 42.9878C281.957 50.4712 282.086 57.9649 281.937 65.4579C281.678 78.5465 278.469 90.8418 272.621 102.56C267.746 112.328 262.648 121.953 256.819 131.174C251.949 138.877 246.269 145.854 238.298 150.576C232.946 153.746 227.17 155.868 221.191 157.552C217.518 158.588 213.795 159.303 210.053 159.885C206.546 160.427 202.981 160.604 199.439 160.926C197.365 161.114 195.3 161.407 193.2 161.232C191.698 161.106 190.135 161.621 188.746 161.523C187.233 161.414 185.698 161.456 184.181 161.36C182.817 161.273 181.381 161.169 180.105 161.199C178.506 161.234 176.93 160.649 175.228 161.103C173.881 161.464 172.296 160.482 170.755 160.697C169.623 160.854 168.548 160.139 167.507 160.333C166.472 160.527 165.71 160.561 165.043 159.666C164.918 159.5 164.497 159.357 164.347 159.442C162.807 160.325 161.498 158.973 160.056 159.035C158.456 159.103 156.947 158.558 155.386 158.355C151.155 157.803 147.063 156.484 142.856 155.87C139.82 155.427 136.853 154.624 133.917 153.915C131.475 153.325 128.899 152.753 126.549 151.664C125.648 151.444 124.746 151.223 123.845 151.003C121.735 150.328 119.623 149.654 117.512 148.979C116.614 148.755 115.782 148.216 114.797 148.4C114.507 147.91 114 147.821 113.514 147.661C107.996 145.849 102.484 144.025 96.9691 142.204C89.9127 140.176 82.8694 138.104 75.7944 136.145C73.1636 135.416 70.638 134.317 67.9207 133.903Z" fill="#697DC3"/>
</g>
<defs>
<clipPath id="clip0_27_20684">
<rect width="282" height="161.143" fill="white" transform="translate(0 0.456543)"/>
</clipPath>
</defs>
</svg>
