<svg width="111" height="72" viewBox="0 0 111 72" fill="none" xmlns="http://www.w3.org/2000/svg">
<path fill-rule="evenodd" clip-rule="evenodd" d="M92.4331 8.21461C92.4025 8.10418 92.3729 7.99324 92.3422 7.88281C90.0745 8.50926 87.8073 9.13519 85.5391 9.76164C85.5758 9.89191 85.612 10.0227 85.6477 10.154C87.9098 9.5077 90.1715 8.8609 92.4331 8.21461ZM15.3001 61.0352C14.1257 60.3517 12.7044 59.9665 13.0538 58.2673C13.2768 57.1869 13.4645 56.0496 13.9574 55.0847C15.4792 52.1031 16.8904 49.0167 18.8086 46.2972C21.3559 42.6866 24.9726 40.3126 29.5203 40.1345C33.8593 39.964 38.2167 40.1905 42.5649 40.3009C48.5375 40.4521 54.5352 40.9732 60.0899 37.931C63.654 35.9789 66.6809 33.606 68.5935 29.86C70.7557 25.624 73.0407 21.4277 75.6013 17.4233C79.1705 11.8417 84.2075 8.20521 90.9418 7.2546C91.6239 7.15842 92.4901 6.87039 92.9687 7.163C93.7773 7.65815 94.4518 8.48103 94.9538 9.30543C95.1293 9.59295 94.7742 10.5329 94.4079 10.7497C93.6243 11.2143 92.6524 11.3491 91.8014 11.7191C91.1259 12.0122 90.5147 12.4534 89.877 12.832C89.7592 12.9018 89.6398 13.0621 89.5357 13.0509C87.2639 12.7969 86.2364 14.7841 84.6605 15.7612C81.0188 18.0202 78.8394 21.5264 76.8645 25.1716C74.9993 28.6143 73.2244 32.1058 71.3235 35.528C70.7817 36.5041 70.0588 37.4522 69.2134 38.1758C66.7595 40.2785 64.2479 42.1457 61.1179 43.4316C55.0484 45.9252 48.9523 45.2178 42.7613 44.8535C38.9274 44.6275 35.047 44.4168 31.237 44.7568C26.401 45.1878 23.0507 48.2371 20.3718 52.1113C19.6667 53.1306 18.5959 53.8969 17.8827 54.9117C17.4102 55.5844 17.3128 56.5091 16.9817 57.2933C16.4649 58.5207 15.893 59.7248 15.3001 61.0352Z" fill="#595984"/>
<path fill-rule="evenodd" clip-rule="evenodd" d="M14.2538 29.9877C14.3216 30.1095 14.3899 30.2318 14.4571 30.3536C15.6065 29.7202 16.7563 29.0867 17.9061 28.4533C17.8297 28.3152 17.7532 28.177 17.6768 28.0389C16.5361 28.6887 15.3944 29.338 14.2538 29.9877ZM47.9844 29.9639C48.0144 30.076 48.0445 30.1881 48.0746 30.3002C49.4752 29.9211 50.8753 29.5424 52.2759 29.1633C52.2458 29.0527 52.2162 28.9426 52.1867 28.832C50.7861 29.2097 49.3855 29.5868 47.9844 29.9639ZM78.1082 0.981935C77.8503 1.20005 77.5924 1.41868 77.1938 1.75604H78.4716C79.3809 3.42299 78.806 4.6425 77.5613 5.71473C76.4767 6.64886 75.4727 7.71293 73.8672 7.66248C73.7015 7.65739 73.4253 7.72517 73.3794 7.83473C72.7693 9.2851 71.7005 9.22445 70.5461 8.70312C70.4794 9.39059 70.567 10.0903 70.3163 10.6346C70.0466 11.2206 69.4773 11.6783 69.0089 12.1629C66.299 14.9648 65.2419 18.5897 63.8831 22.1019C62.6334 25.3314 60.8913 28.3208 57.7925 30.2104C57.3873 30.4571 56.8608 30.5055 56.0912 30.7348C55.5917 31.5507 54.8552 32.5602 53.2701 32.7096C52.3481 32.7967 51.499 33.6024 50.5734 33.712C48.025 34.0132 45.4246 34.4356 42.8992 34.2078C40.5572 33.9963 38.226 33.1667 35.9956 32.3279C31.1445 30.504 26.1848 30.2252 21.2114 31.3148C18.4494 31.9202 15.8888 33.237 14.0091 35.5624C13.4403 36.2662 12.6636 36.7977 12.0117 37.4383C8.83693 40.5571 6.33646 44.1433 4.58266 48.2401C4.04189 49.5045 3.5266 50.78 2.98788 52.0459C2.73355 52.6411 2.44456 52.9367 1.73509 52.4587C-0.0110662 51.282 -0.275079 50.5125 0.224405 48.3461C2.22897 39.6475 7.51075 33.3181 14.6865 28.3992C17.8659 26.2196 21.5952 25.7752 25.3133 25.8787C27.8214 25.949 30.3433 26.4265 32.805 26.9672C35.1006 27.4712 37.3126 28.3417 39.5822 28.9751C42.3406 29.7446 45.0939 29.233 47.8303 28.7702C54.7329 27.6027 59.004 23.5049 61.1095 16.9186C63.4438 9.61533 68.1343 4.33164 75.0894 1.1073C75.9513 0.708272 76.9772 0.664954 77.9273 0.457031C77.9879 0.631829 78.0481 0.806627 78.1082 0.981935Z" fill="#595984"/>
<path fill-rule="evenodd" clip-rule="evenodd" d="M90.5446 31.7378C90.0101 32.3201 89.467 32.8948 88.9447 33.4872C88.7203 33.7416 88.3107 34.2004 88.3706 34.2809C89.1848 35.3746 88.329 36.2872 87.7372 36.7051C86.219 37.778 86.7159 39.3013 86.5058 40.655C86.3804 41.4599 85.3719 42.7215 84.6318 42.8601C84.5714 42.4929 84.5125 42.1342 84.4542 41.7755C84.1293 41.9344 83.7471 42.0315 83.4923 42.2657C83.0538 42.6694 82.6939 43.1586 82.1838 43.7464C82.7152 43.8502 83.0781 43.921 83.4598 43.9948C83.5334 44.4567 83.6045 44.9014 83.675 45.341C82.2868 45.8524 80.8884 46.0983 79.8251 47.2866C79.2469 47.9331 78.4465 48.2356 78.9038 49.3031C78.9429 49.3936 78.3902 49.904 78.3003 49.8575C76.1365 48.7365 74.9605 50.7337 74.3021 51.7794C73.759 52.6409 73.1256 53.1027 72.4261 53.4316C71.8896 53.6835 71.077 53.34 70.3847 53.2833C70.2121 53.2692 70.0329 53.3395 69.7659 53.3865C69.7974 53.7978 69.8258 54.1702 69.8527 54.5334C68.6132 55.059 68.6132 55.059 65.7997 54.2804C65.55 55.8305 64.2882 56.3525 62.6548 55.5092C62.5624 55.8178 62.4751 56.1112 62.4629 56.1517C60.7742 56.1148 59.0084 54.4211 57.5552 56.9029C56.2766 55.4966 54.9503 56.1001 53.4997 56.8362C52.8195 57.1807 51.8998 57.127 51.0882 57.1326C47.7737 57.1549 44.5145 57.3754 41.2904 58.3346C39.7109 58.8045 38.3724 59.7617 36.8826 60.1962C33.6651 61.1351 32.1891 63.9807 29.9334 65.942C28.8751 66.8622 28.3361 68.3688 27.5366 69.5935C27.0489 70.3402 26.8392 71.5189 25.4236 70.8203C24.3278 70.28 23.9146 69.5884 24.4222 68.2615C26.7809 62.0973 30.5953 57.3086 36.8821 54.6128C41.6158 52.5842 46.5479 52.5579 51.5206 52.4233C54.7346 52.3363 57.944 52.1102 61.1574 51.9665C61.6544 51.9448 62.5015 51.4945 62.2761 52.6687L62.2817 52.6459L61.6605 52.8812C61.6554 52.9535 61.6508 53.0258 61.6457 53.0982C61.9569 53.1265 62.2751 53.2085 62.5766 53.169C62.9314 53.123 63.2756 52.8685 63.6182 52.8812C66.3855 52.9818 68.7173 51.6458 71.0334 50.4828C73.4941 49.2469 75.7893 47.6721 78.1054 46.1671C78.8109 45.7093 79.3479 44.9934 79.9621 44.3955L79.9215 44.4294C80.3758 44.0702 80.8291 43.7105 81.5696 43.1242C80.7331 43.0721 80.3083 43.0458 79.6363 43.0043C80.5458 41.8995 81.3036 40.8498 82.201 39.9356C82.7954 39.3296 83.2055 39.5942 83.6288 40.6707C84.3065 40.6236 84.9592 40.5786 85.7414 40.524C85.3658 40.0186 85.049 39.5916 84.8252 39.2916C84.2313 39.2431 83.4953 39.3569 83.3745 39.1358C83.1517 38.7291 83.206 38.1099 83.2984 37.6071C83.4289 36.8978 83.6481 36.1921 83.9293 35.5269C84.0984 35.1272 84.4567 34.8075 84.8653 34.2758C84.5988 33.1786 85.0607 32.0489 87.0159 29.5423C87.2829 29.6743 87.5646 29.8129 87.9128 29.9849C87.7382 28.2877 87.9118 28.0145 88.7462 28.0838V29.8225L88.7178 29.7836C89.0102 30.3805 89.302 30.977 89.6274 31.6432C89.705 31.622 89.9933 31.542 90.2821 31.4616C90.3694 31.5537 90.4573 31.6457 90.5446 31.7378Z" fill="#595984"/>
<path fill-rule="evenodd" clip-rule="evenodd" d="M91.0495 30.6948C90.9635 30.6038 90.877 30.5128 90.791 30.4218C90.973 28.4908 90.8925 28.4048 89.25 28.7633L89.278 28.8018C89.8735 28.2353 90.469 27.6683 91.138 27.0308C90.7165 26.7608 90.3135 26.5028 89.6975 26.1083C90.2235 25.8023 90.5995 25.5723 90.988 25.3653C91.1165 25.2968 91.339 25.3393 91.414 25.2463C94.3485 21.6298 98.241 19.4448 102.545 17.9638C104.536 17.2788 106.637 16.9143 108.692 16.4218C108.986 16.3513 109.304 16.3803 109.61 16.3633L109.739 16.7963C107.162 17.5533 104.583 18.3103 102.007 19.0673C102.04 19.1928 102.073 19.3183 102.106 19.4443C104.781 18.7053 107.457 17.9658 110.107 17.2338C111.038 19.2883 110.893 19.5408 108.979 20.3633C106.467 21.4433 103.995 22.6178 101.497 23.7298C101 23.9508 100.528 24.3008 99.933 23.6898C99.6905 23.4423 98.9825 23.6493 98.356 23.6493V22.7218C97.7615 23.0983 97.251 23.4213 96.433 23.9393C97.157 24.0258 97.511 24.0678 97.8515 24.1088C97.8515 24.2448 97.886 24.3518 97.847 24.4013C97.414 24.9488 96.766 25.2158 96.8215 26.2353C96.8595 26.9338 95.9365 26.9103 95.525 26.2528C95.1535 26.6648 94.78 27.0793 94.2215 27.6983C94.321 28.9758 93.399 29.7233 91.6805 29.2163C91.7445 29.6323 91.897 30.0168 91.8145 30.3408C91.771 30.5128 91.318 30.5803 91.0495 30.6948Z" fill="#595984"/>
<path fill-rule="evenodd" clip-rule="evenodd" d="M74 47.463C72.0934 48.3205 70.1858 49.1776 68.2787 50.0352C68.1856 49.9066 68.0931 49.778 68 49.6494C68.2614 49.4801 68.5055 49.2859 68.7858 49.1452C70.1138 48.4797 71.4413 47.8127 72.7943 47.1855C73.0854 47.0509 73.4799 47.0809 73.8274 47.0352C73.8847 47.1776 73.9426 47.3205 74 47.463Z" fill="#595984"/>
<path fill-rule="evenodd" clip-rule="evenodd" d="M62 52.0352C62.9157 50.2433 64.5931 50.5772 66 50.0352C65.9333 51.0029 64.7375 51.5605 62.0101 52.0012C62.0058 52.0101 62 52.0352 62 52.0352Z" fill="#595984"/>
<path fill-rule="evenodd" clip-rule="evenodd" d="M80 43.931C79.4723 44.0091 78.9099 44.0145 78.4273 44.1858C77.9537 44.3541 77.5613 44.691 77 45.0352C77.1311 43.9996 78.3455 42.8924 79.1308 43.0503C79.4702 43.118 79.6842 43.6439 79.9565 43.9615C79.958 43.9611 80 43.931 80 43.931Z" fill="#595984"/>
</svg>
