<svg width="103" height="111" viewBox="0 0 103 111" fill="none" xmlns="http://www.w3.org/2000/svg">
<g clip-path="url(#clip0_27_20686)">
<path fill-rule="evenodd" clip-rule="evenodd" d="M58.4159 32.3808C58.4665 32.5856 58.5049 32.7558 58.6958 32.7932C58.7574 32.8055 58.8294 32.7118 58.8161 32.632C58.7832 32.434 58.6261 32.4033 58.4159 32.3808ZM65.617 77.9198C65.4833 78.0638 65.6071 78.2257 65.4393 78.292C65.3944 78.3097 65.7631 78.5287 65.7936 78.4493C65.8702 78.2512 65.6422 78.1502 65.617 77.9198ZM66.5221 66.1609C66.2676 65.8924 66.3018 65.4535 65.9053 65.1747C66.0626 65.5973 66.2486 65.9063 66.5221 66.1609ZM64.5559 61.2953C64.4108 60.9957 64.276 60.6736 63.826 60.5096C64.0194 60.9002 64.2643 61.1128 64.5559 61.2953ZM67.3667 66.932C67.1894 66.489 67.0525 66.0272 66.6133 65.7198C66.833 66.1689 66.9956 66.6165 67.3667 66.932ZM68.9033 52.3923C69.1455 52.9649 69.2411 53.6131 69.76 54.0421C69.4159 53.5224 69.2582 52.9065 68.9033 52.3923ZM58.8182 31.5482L58.7573 31.6335C59.3569 32.1405 59.9567 32.6471 60.5565 33.1537C60.5762 33.1301 60.5958 33.1065 60.6156 33.0832C60.0981 32.4753 59.4435 32.0287 58.8182 31.5482ZM77.59 83.9124C77.9997 83.2409 77.9483 82.9926 77.2793 82.8301C77.6832 83.1555 77.2027 83.6173 77.59 83.9124ZM70.4571 55.9464C70.6326 56.786 71.2045 57.3996 71.6588 58.0823C71.4189 57.2812 70.919 56.6271 70.4571 55.9464ZM70.07 87.3656C69.0521 86.6063 68.0568 85.8187 67.1035 84.9785C67.9591 85.9382 68.9476 86.7345 70.07 87.3656ZM58.248 62.1072C58.7978 62.9847 59.4148 63.8134 60.0718 64.6124C59.6332 63.6532 59.1182 62.7506 58.248 62.1072ZM75.7638 86.6543C76.0076 86.6352 76.1187 86.5277 76.2315 86.4301C76.832 85.9112 77.1446 85.2101 77.4463 84.5024C77.5861 84.1742 77.5748 84.1372 77.2551 83.8569C77.3925 84.7769 77.0655 85.352 76.4654 85.2377C76.4387 85.437 76.464 85.8102 76.3154 85.7866C75.9281 85.7252 76.0622 86.0062 76.018 86.14C75.9642 86.304 75.9606 86.4841 75.7638 86.6543ZM52.0926 29.3955C54.2524 30.3387 56.3798 31.3566 58.5967 32.1649C56.7129 30.5807 54.5056 29.7486 52.0926 29.3955ZM74.9374 59.4356C74.8887 58.8652 74.7224 58.3931 74.5603 57.9271C73.2399 54.1326 71.3352 50.6032 69.62 46.9875C69.6681 47.2843 74.7078 59.0153 74.9374 59.4356ZM59.4426 67.5464C59.5093 67.8675 59.552 68.1942 59.8535 68.411C59.9452 68.477 59.9348 68.6211 59.921 68.7327C59.896 68.936 60.0253 69.1121 60.151 69.1627C60.3634 69.2483 60.3699 69.4159 60.4321 69.5688C60.4741 69.6719 60.47 69.7868 60.5379 69.8869C61.0245 70.6032 61.2876 71.4352 61.7179 72.1806C61.8941 72.4861 61.9169 72.8681 62.2249 73.1137C62.3236 73.1924 62.5387 73.2119 62.5105 73.3662C62.483 73.518 62.2465 73.3266 62.157 73.5118C62.5758 73.6356 62.9153 73.888 63.0619 74.2935C63.1839 74.6315 63.5933 74.933 63.224 75.3721C63.4419 75.1118 63.5871 75.1176 63.751 75.3587C63.9428 75.6405 64.0795 75.9547 64.2628 76.2359C64.4088 76.4599 64.6501 76.6441 64.703 76.9086C64.7765 77.2767 65.2844 77.4009 65.1927 77.8531C65.1799 77.9166 65.3082 78.0054 65.4201 77.8884C65.5567 77.7456 65.5121 77.41 65.3144 77.3003C65.0504 77.1539 65.0897 76.7821 64.8137 76.6504C65.057 76.3586 64.744 76.3032 64.6118 76.1687C64.5815 76.138 64.5298 76.1121 64.56 76.0458C64.6616 75.8228 64.5069 75.5902 64.6503 75.3127C64.4575 75.3874 64.3609 75.6294 64.2529 75.4963C64.1136 75.3244 64.4368 75.2723 64.4429 75.0738C64.2158 75.1165 64.0973 75.0035 64.0517 74.7856C63.9105 74.1118 63.4217 73.6386 63.0435 73.1084C62.8232 72.7993 62.6393 72.4639 62.4786 72.1374C62.1937 71.5579 61.8219 71.0292 61.4952 70.4842C61.1088 69.8395 60.687 69.2018 60.2525 68.5817C60.0041 68.2277 59.8559 67.7798 59.4379 67.5558C59.2365 67.0343 59.0243 66.8707 58.6999 66.9978C58.9721 67.1535 59.0901 67.5056 59.4426 67.5464ZM60.0039 30.6692C60.5507 30.9429 60.9725 31.3677 61.3615 31.823C61.6602 32.1724 61.9016 32.5719 62.3385 32.7841C62.4221 32.8248 62.5515 32.8929 62.495 33.0402C62.4577 33.1378 62.5108 33.2056 62.587 33.1931C62.8391 33.1509 62.8705 33.2933 62.8777 33.4875C62.8826 33.627 62.9306 33.6936 63.03 33.5292C63.111 33.6054 63.2004 33.6744 63.2722 33.7584C64.4406 35.1241 65.583 36.5111 66.5824 38.0083C67.1091 38.7981 67.8148 39.4337 68.4051 40.1706C69.494 41.5291 70.3082 43.0317 71.0249 44.6092C71.4585 45.5632 71.8059 46.5561 72.2587 47.4909C73.1861 49.4065 74.0126 51.3675 74.9393 53.2813C75.5244 54.4905 76.0524 55.7219 76.5766 56.9565C77.0553 58.084 77.3326 59.2628 77.5535 60.4673C77.908 62.4047 78.3295 64.33 78.7565 66.2536C79.5006 69.6068 79.9081 73.001 79.8797 76.4404C79.8621 78.586 79.6595 80.7132 79.1478 82.8017C78.7893 84.2642 78.2677 85.6628 77.3666 86.8886C76.0264 88.712 74.1599 89.3139 71.9587 88.6673C70.2745 88.1726 68.8954 87.1716 67.6008 86.0412C65.2507 83.9889 63.6249 81.4243 62.3813 78.5919C61.5308 76.6551 60.786 74.6767 60.0242 72.7047C59.7193 71.9152 59.1948 71.2568 58.7403 70.5533C57.9079 69.2651 57.0329 68.0075 56.1453 66.7584C55.7824 66.2475 55.3919 65.7542 54.9046 65.3517C54.6425 65.1354 54.5146 64.7886 54.1608 64.6529C53.9885 64.5868 54 64.3842 54.0259 64.1968C54.0541 63.9928 54.0383 63.755 53.7135 63.8695C53.3699 63.9908 53.0755 63.9089 52.8681 63.5677C52.7741 63.4131 52.6888 63.2945 52.4997 63.2833C52.4756 63.282 52.4347 63.272 52.4311 63.2582C52.3329 62.8864 51.959 62.8926 51.7192 62.716C51.1556 62.3011 50.5711 61.9158 50.0147 61.4922C49.6425 61.2088 49.2329 60.9791 48.85 60.7138C48.674 60.5919 48.4808 60.4354 48.2763 60.3483C48.0397 60.2478 47.8245 60.114 47.5947 60.0062C47.059 59.7555 46.6306 59.3403 46.1001 59.0737C45.458 58.7508 44.7724 58.5552 44.1138 58.2833C42.3582 57.5593 40.5629 56.9214 38.9148 55.9619C37.4674 55.1195 36.4595 53.8766 35.7544 52.3696C35.3947 51.6009 34.8267 50.9704 34.3344 50.2888C33.8365 49.599 33.2315 49.017 32.6036 48.4624C32.2183 48.1221 31.693 47.9992 31.2077 47.822C29.8043 47.3095 28.3287 46.9277 27.087 46.0777C26.0392 45.3604 24.957 44.6805 24.0207 43.7974C23.048 42.8798 22.1685 41.8941 21.5201 40.7271C20.4886 38.8708 19.8333 36.914 19.849 34.7436C19.8563 33.7446 19.9826 32.7814 20.2491 31.8392C20.594 30.6204 21.1939 29.5137 21.936 28.4838C23.1629 26.7812 24.8613 25.729 26.7517 24.9208C27.675 24.5257 28.6121 24.1806 29.6015 24.0175C29.9992 23.952 30.4304 23.9317 30.8056 23.8476C31.8175 23.6211 32.8153 23.7133 33.8127 23.7899C34.8657 23.8704 35.9119 24.0426 36.9583 24.2043C37.7306 24.3239 38.4663 24.6025 39.252 24.6524C39.5337 24.6706 39.8069 24.8245 40.0828 24.9208C40.4047 25.0329 40.7469 24.9782 41.0781 25.0666C42.2278 25.3737 43.3901 25.6331 44.5411 25.9361C46.5583 26.4672 48.6246 26.7317 50.6735 27.0927C51.5633 27.2494 52.454 27.4012 53.3441 27.5574C53.8477 27.6459 54.3391 27.8 54.829 27.9342C55.1153 28.0126 55.4134 28.1885 55.7022 28.3014C56.1137 28.462 56.4603 28.7949 56.9451 28.7806C57.2008 28.7733 57.4248 28.8808 57.6021 29.09C57.8158 29.3421 58.1957 29.3551 58.4088 29.6179C58.9403 29.9682 59.4722 30.3185 60.0039 30.6692Z" fill="#595984"/>
</g>
<defs>
<clipPath id="clip0_27_20686">
<rect width="76.5994" height="88.1418" fill="white" transform="translate(0 27.7734) rotate(-20.8909)"/>
</clipPath>
</defs>
</svg>
