<svg width="66" height="76" viewBox="0 0 66 76" fill="none" xmlns="http://www.w3.org/2000/svg">
<g clip-path="url(#clip0_27_20682)">
<path fill-rule="evenodd" clip-rule="evenodd" d="M31.6005 4.98608C28.1405 5.45308 22.4875 9.04608 21.7075 11.252C24.9835 9.17608 28.1095 7.19708 31.6005 4.98608ZM38.7935 8.59708C37.8575 9.09208 36.9145 9.54508 36.0175 10.0741C32.9025 11.913 29.5475 13.465 26.7725 15.726C24.1685 17.848 22.1755 20.722 19.9335 23.283C18.8605 24.508 17.6165 25.649 16.8245 27.042C13.0085 33.747 9.35548 40.616 8.86148 48.472C8.60548 52.55 9.22648 56.724 9.86048 60.791C10.0385 61.939 11.4715 63.341 12.6525 63.81C19.4645 66.509 26.4965 67.125 33.3205 64.1C46.1095 58.428 52.9575 47.831 56.3605 34.776C57.9665 28.617 57.6575 22.618 52.1455 18.108C51.0935 17.247 49.9565 16.484 48.9395 15.584C48.4355 15.137 47.7145 14.434 47.7765 13.931C48.1745 10.72 46.4945 9.58408 43.6535 9.45308C42.4825 9.39908 41.2995 9.46208 40.1445 9.30908C39.6075 9.23808 39.1215 8.77908 38.7935 8.59708ZM65.7225 34.025C65.2825 40.997 63.4815 47.55 59.6705 53.505C58.0325 56.064 56.6445 58.785 54.9505 61.302C54.2235 62.382 52.9475 63.073 52.0215 64.038C47.2715 68.986 41.9235 72.961 34.9895 74.174C25.5205 75.832 16.5975 74.56 8.61147 68.818C2.35747 64.32 -0.166525 57.637 0.00847533 50.524C0.417475 33.917 7.29247 20.08 20.1195 9.39808C22.6625 7.27908 25.4565 5.35208 28.3925 3.83208C35.7385 0.0260792 42.9975 0.858079 49.8465 5.20508C54.4575 8.13308 58.0455 12.051 60.1705 17.202C60.7545 18.619 61.6025 19.929 62.3575 21.274C64.5765 25.229 66.0105 29.386 65.7225 34.025Z" fill="#9DB5FC"/>
</g>
<defs>
<clipPath id="clip0_27_20682">
<rect width="66" height="75" fill="white" transform="translate(0 0.456543)"/>
</clipPath>
</defs>
</svg>
