<svg width="114" height="30" viewBox="0 0 114 30" fill="none" xmlns="http://www.w3.org/2000/svg">
<path fill-rule="evenodd" clip-rule="evenodd" d="M28.9876 1.62654C30.0668 2.07371 31.0473 2.72912 31.8731 3.55533C32.6994 4.38116 33.3548 5.36168 33.8019 6.44087C34.2491 7.52006 34.4793 8.67679 34.4793 9.84496C34.4793 11.0131 34.2491 12.1698 33.8019 13.249C33.3548 14.3282 32.6994 15.3088 31.8731 16.1346L19.5358 28.4719C18.4557 29.5521 16.7044 29.5521 15.6242 28.4719L3.28689 16.1346C1.61878 14.4665 0.681641 12.204 0.681641 9.84496C0.681641 7.48589 1.61878 5.22344 3.28689 3.55533C4.955 1.88722 7.21745 0.950083 9.57651 0.950083C11.9356 0.950083 14.198 1.88722 15.8661 3.55533L17.58 5.26921L19.2939 3.55533C20.1197 2.72912 21.1002 2.07371 22.1794 1.62654C23.2586 1.17938 24.4154 0.949219 25.5835 0.949219C26.7517 0.949219 27.9084 1.17938 28.9876 1.62654ZM12.9348 10.6208C11.6734 12.5126 10.7375 14.4159 10.7375 16.4801C10.7375 19.521 12.4787 22.3801 14.9751 23.4892L15.8286 22.2746C16.8591 21.097 18.5304 21.0965 19.5613 22.2746L20.2587 23.0711C22.7551 21.9618 24.2869 19.3614 24.2869 16.4796C24.2869 12.9004 21.3479 10.5655 21.3479 10.5655C21.0526 10.2858 20.8069 10.3976 20.8059 10.8002C20.8059 10.8002 20.9911 14.2829 19.1601 14.2829C18.2275 14.2829 18.2109 13.3945 18.1868 12.103C18.1562 10.4629 18.1134 8.1728 16.1671 6.22657C15.4003 5.56922 15.0922 5.30519 14.9506 5.37565C14.6188 5.54069 15.2001 7.54122 12.9348 10.6208ZM21.0176 7.67487C20.3578 6.65698 19.0781 6.07126 18.5133 6.16909C18.2692 6.21126 18.3418 6.29165 18.5301 6.5C18.7774 6.77373 19.2243 7.26832 19.4147 8.18728C19.7506 9.80495 21.939 9.14541 21.0176 7.67487Z" fill="white"/>
<path d="M58.0748 11.0028C57.6013 10.1348 56.9503 9.47385 56.1217 9.02009C55.2931 8.56634 54.3264 8.33946 53.2216 8.33946C51.9984 8.33946 50.9134 8.61566 49.9664 9.16806C49.0194 9.72046 48.2796 10.5096 47.7469 11.5355C47.2142 12.5614 46.9479 13.7451 46.9479 15.0866C46.9479 16.4676 47.2142 17.6711 47.7469 18.697C48.2993 19.7229 49.0589 20.512 50.0256 21.0644C50.9923 21.6168 52.1168 21.893 53.3992 21.893C54.9774 21.893 56.2697 21.4787 57.2758 20.6501C58.282 19.8018 58.9429 18.6279 59.2586 17.1285H52.1563V13.9621H63.3424V17.5724C63.0662 19.0126 62.4743 20.3443 61.5668 21.5675C60.6593 22.7907 59.4854 23.7771 58.0452 24.5268C56.6248 25.2567 55.0268 25.6217 53.2512 25.6217C51.2586 25.6217 49.4534 25.1778 47.8357 24.29C46.2377 23.3825 44.975 22.1297 44.0478 20.5317C43.1403 18.9337 42.6865 17.1187 42.6865 15.0866C42.6865 13.0546 43.1403 11.2396 44.0478 9.64154C44.975 8.0238 46.2377 6.77103 47.8357 5.88325C49.4534 4.97573 51.2487 4.52197 53.2216 4.52197C55.5496 4.52197 57.5718 5.0941 59.2881 6.23836C61.0045 7.36289 62.1882 8.95104 62.8393 11.0028H58.0748Z" fill="white"/>
<path d="M80.1682 16.8918C80.1682 17.4837 80.1288 18.0163 80.0499 18.4898H68.0648C68.1634 19.6735 68.5777 20.6008 69.3077 21.2716C70.0376 21.9423 70.9353 22.2777 72.0006 22.2777C73.5394 22.2777 74.6344 21.6168 75.2854 20.295H79.7539C79.2805 21.8733 78.3729 23.1754 77.0314 24.2013C75.6899 25.2074 74.0425 25.7105 72.0894 25.7105C70.5111 25.7105 69.0906 25.3652 67.828 24.6747C66.5851 23.9645 65.6085 22.9682 64.8983 21.6859C64.2078 20.4035 63.8626 18.9239 63.8626 17.2469C63.8626 15.5503 64.2078 14.0608 64.8983 12.7784C65.5888 11.496 66.5555 10.5096 67.7984 9.8191C69.0413 9.1286 70.4716 8.78335 72.0894 8.78335C73.6479 8.78335 75.0388 9.11874 76.262 9.78951C77.5049 10.4603 78.4617 11.4171 79.1325 12.66C79.823 13.8832 80.1682 15.2938 80.1682 16.8918ZM75.8773 15.7081C75.8575 14.6427 75.4728 13.7944 74.7232 13.1631C73.9735 12.5121 73.0561 12.1865 71.971 12.1865C70.9451 12.1865 70.0771 12.5022 69.3668 13.1335C68.6763 13.7451 68.2522 14.6033 68.0943 15.7081H75.8773Z" fill="white"/>
<path d="M90.7976 8.81294C92.7508 8.81294 94.3291 9.43439 95.5325 10.6773C96.736 11.9005 97.3377 13.6169 97.3377 15.8265V25.4442H93.1947V16.3887C93.1947 15.0866 92.8692 14.0903 92.2181 13.3998C91.5671 12.6896 90.6793 12.3345 89.5548 12.3345C88.4105 12.3345 87.503 12.6896 86.8322 13.3998C86.1812 14.0903 85.8556 15.0866 85.8556 16.3887V25.4442H81.7126V9.04969H85.8556V11.0916C86.408 10.3814 87.1084 9.82897 87.9567 9.4344C88.8248 9.02009 89.7718 8.81294 90.7976 8.81294Z" fill="white"/>
<path d="M104.03 21.9522H113.322V25.4442H99.2356V22.2481L108.469 8.28027H99.2356V4.78831H113.322V7.98434L104.03 21.9522Z" fill="white"/>
</svg>
